<svg version="1.1" id="Layer_1" xmlns="http://www.w3.org/2000/svg" xmlns:xlink="http://www.w3.org/1999/xlink" x="0px" y="0px"
	 width="100%" viewBox="0 0 2000 484" enable-background="new 0 0 2000 484" xml:space="preserve">
<path fill="#000000" opacity="1.000000" stroke="none" 
	d="
M1456.000000,485.000000 
	C970.666687,485.000000 485.833344,485.000000 1.000000,485.000000 
	C1.000000,323.666656 1.000000,162.333328 1.000000,1.000000 
	C667.666687,1.000000 1334.333374,1.000000 2001.000000,1.000000 
	C2001.000000,162.333328 2001.000000,323.666656 2001.000000,485.000000 
	C1819.500000,485.000000 1638.000000,485.000000 1456.000000,485.000000 
M491.936523,363.979889 
	C524.755371,363.989899 557.574341,363.958069 590.392944,364.054352 
	C595.415222,364.069061 599.200012,362.306915 601.332703,357.774750 
	C603.477478,353.217041 602.315369,349.012024 599.190247,345.268402 
	C598.339050,344.248688 597.369385,343.324860 596.425476,342.385803 
	C576.584656,322.646851 556.757080,302.894653 536.890015,283.182159 
	C522.054932,268.462585 507.167938,253.795364 492.040710,238.557709 
	C484.154327,230.685287 476.325287,222.754272 468.362854,214.959518 
	C462.287567,209.012161 455.919678,209.413147 450.296112,215.847412 
	C437.854401,230.082657 425.336700,244.252167 412.977509,258.558594 
	C403.758667,269.229919 394.739594,280.073761 385.059448,291.150360 
	C376.007843,301.601166 366.962158,312.057068 357.901978,322.500427 
	C353.856476,327.163513 344.188599,327.553497 339.847198,323.229034 
	C332.409576,315.820465 325.053741,308.328339 317.536133,301.002014 
	C313.199158,296.775360 308.384460,296.506653 304.237946,300.601837 
	C287.994995,316.643860 271.760529,332.703247 255.981689,349.195099 
	C254.040680,351.223785 253.693939,356.338837 254.777756,359.202637 
	C255.632263,361.460571 259.794861,363.736511 262.540588,363.801819 
	C279.861786,364.213898 297.197662,364.031250 314.528625,364.006226 
	C338.687958,363.971344 362.847260,363.902405 387.934021,363.985565 
	C422.292480,363.937866 456.650909,363.890167 491.936523,363.979889 
M1716.825806,185.553375 
	C1696.815674,182.968201 1680.566650,189.069061 1668.987183,206.903412 
	C1662.273926,191.298462 1650.086304,185.174164 1634.273315,184.962631 
	C1618.971558,184.757935 1606.192505,189.879318 1596.597412,204.268539 
	C1596.597412,197.769150 1596.597412,192.997162 1596.597412,188.097992 
	C1586.637329,188.097992 1577.038330,188.097992 1567.325928,188.097992 
	C1567.325928,227.807556 1567.325928,267.337646 1567.325928,306.817566 
	C1577.442627,306.817566 1587.229492,306.817566 1597.425903,306.817566 
	C1597.425903,301.498718 1597.394409,296.360107 1597.431396,291.221954 
	C1597.568237,272.229462 1597.572510,253.233948 1597.959839,234.246368 
	C1598.102539,227.252579 1600.627808,220.812653 1605.732056,215.821075 
	C1613.003418,208.709747 1621.877563,207.342819 1631.189087,210.408401 
	C1639.595947,213.176056 1641.381592,220.664459 1642.088989,228.414917 
	C1642.391357,231.728043 1642.500488,235.068817 1642.506226,238.397369 
	C1642.542358,259.395294 1642.524780,280.393341 1642.524902,301.391327 
	C1642.524902,303.184509 1642.524902,304.977692 1642.524902,306.697021 
	C1652.962280,306.697021 1662.878540,306.697021 1672.985352,306.697021 
	C1672.985352,300.911224 1672.981445,295.430328 1672.986084,289.949432 
	C1673.000854,272.451233 1672.750488,254.947571 1673.106567,237.456268 
	C1673.513184,217.480774 1687.409180,205.538681 1704.610107,209.709351 
	C1710.291260,211.086868 1714.462402,214.299011 1715.879272,219.838608 
	C1717.223022,225.091766 1718.030273,230.620804 1718.090210,236.039383 
	C1718.331055,257.867981 1718.191406,279.700775 1718.192017,301.532043 
	C1718.192017,303.293182 1718.191895,305.054321 1718.191895,306.659973 
	C1728.770874,306.659973 1738.682129,306.659973 1748.815552,306.659973 
	C1748.815552,297.006256 1748.899170,287.693268 1748.797729,278.382263 
	C1748.592651,259.561554 1748.901367,240.707809 1747.858154,221.931030 
	C1746.708862,201.247696 1735.658569,188.757843 1716.825806,185.553375 
M1276.709106,317.001221 
	C1272.864502,323.132904 1267.284180,326.744202 1260.260498,328.137024 
	C1248.040649,330.560272 1236.019531,329.302124 1224.363403,325.311066 
	C1217.240479,322.872162 1210.408203,319.584503 1203.317871,316.624878 
	C1200.599976,323.507538 1197.876831,330.403503 1195.126343,337.368652 
	C1206.968506,345.321350 1219.806274,349.567169 1233.429565,351.511627 
	C1249.090576,353.747009 1264.644897,353.530670 1279.724243,348.006622 
	C1299.038940,340.931091 1310.668701,324.424805 1310.919434,301.950104 
	C1311.339355,264.306305 1311.092896,226.655029 1311.105469,189.006912 
	C1311.105591,188.740524 1310.806641,188.474045 1310.610718,188.146423 
	C1300.886475,188.146423 1291.140991,188.146423 1280.823730,188.146423 
	C1280.823730,193.672668 1280.823730,198.991241 1280.823730,202.828659 
	C1275.504395,198.658127 1270.363403,193.215225 1264.087769,189.959717 
	C1240.993774,177.979614 1210.637939,186.671738 1197.869263,209.277115 
	C1185.177490,231.746017 1184.883789,255.277328 1197.168457,277.943359 
	C1215.818726,312.354187 1265.523560,310.100952 1280.096313,284.462128 
	C1280.151367,284.365082 1280.624634,284.505615 1281.038208,284.549652 
	C1280.649170,295.264801 1282.588501,306.249237 1276.709106,317.001221 
M1052.871216,156.500107 
	C1052.871216,206.568710 1052.871216,256.637299 1052.871216,306.670166 
	C1063.296021,306.670166 1073.188843,306.670166 1083.174927,306.670166 
	C1083.174927,284.020752 1083.008301,261.700256 1083.225220,239.383469 
	C1083.414429,219.929901 1095.779053,208.081116 1114.312866,209.071182 
	C1124.910645,209.637329 1131.262451,215.169434 1132.987183,225.676727 
	C1133.604126,229.435196 1133.898071,233.286652 1133.913086,237.097336 
	C1133.998291,258.750977 1133.954224,280.405182 1133.954346,302.059174 
	C1133.954346,303.647461 1133.954468,305.235718 1133.954468,306.620850 
	C1144.458740,306.620850 1154.334106,306.620850 1164.171997,306.620850 
	C1164.171997,280.757904 1164.222290,255.274719 1164.119629,229.792160 
	C1164.103638,225.821060 1163.667847,221.801926 1162.950439,217.892303 
	C1160.326172,203.590714 1153.798218,191.732986 1138.963745,187.665634 
	C1131.136841,185.519608 1122.494019,185.041901 1114.355225,185.644180 
	C1101.779785,186.574783 1091.435425,192.795425 1083.062012,204.441574 
	C1083.062012,180.390518 1083.062012,157.896744 1083.062012,135.373505 
	C1072.757568,135.373505 1063.009521,135.373505 1052.871216,135.373505 
	C1052.871216,142.245789 1052.871216,148.872986 1052.871216,156.500107 
M667.568542,135.116119 
	C664.812012,135.116119 662.055481,135.116119 659.327759,135.116119 
	C659.327759,144.106430 659.327759,152.371216 659.327759,161.067200 
	C677.953003,161.067200 696.355286,161.067200 715.182861,161.067200 
	C715.182861,209.877487 715.182861,258.255615 715.182861,306.750244 
	C725.851440,306.750244 736.085876,306.750244 746.783936,306.750244 
	C746.783936,258.126068 746.783936,209.756088 746.783936,160.914032 
	C765.637390,160.914032 784.030457,160.914032 802.356812,160.914032 
	C802.356812,152.054169 802.356812,143.675522 802.356812,135.116119 
	C757.492371,135.116119 713.022827,135.116119 667.568542,135.116119 
M1454.041382,215.404724 
	C1464.651123,210.738770 1475.599854,207.542282 1487.338257,208.118103 
	C1499.198853,208.699905 1505.201172,213.800278 1506.692505,224.880295 
	C1507.194946,228.613708 1506.771973,232.471680 1506.771973,237.055008 
	C1498.721924,237.055008 1490.681274,236.323776 1482.829712,237.230209 
	C1471.667114,238.518860 1460.491333,240.415710 1449.612427,243.192947 
	C1442.004272,245.135178 1435.957031,250.361969 1433.235352,258.111359 
	C1429.015259,270.127747 1430.197144,281.565948 1437.596436,292.290314 
	C1450.387695,310.829620 1489.781616,318.610535 1507.109131,289.875031 
	C1507.109131,296.114105 1507.109131,301.455353 1507.109131,306.706360 
	C1517.074097,306.706360 1526.479004,306.706360 1536.038574,306.706360 
	C1536.038574,281.944672 1536.092163,257.479980 1535.988281,233.015915 
	C1535.969971,228.707336 1535.551147,224.360565 1534.875122,220.101593 
	C1532.000977,201.992920 1521.760620,190.322540 1503.695679,187.010635 
	C1494.049316,185.242111 1483.808105,185.247742 1474.000610,186.183746 
	C1460.397461,187.481979 1447.629517,192.259079 1435.755127,199.602646 
	C1438.651245,206.671616 1441.406494,213.396744 1444.237061,220.305679 
	C1447.488892,218.706573 1450.438965,217.255859 1454.041382,215.404724 
M869.589111,296.058716 
	C870.864746,294.227570 872.140320,292.396423 874.100464,289.582642 
	C874.100464,296.061615 874.100464,301.428406 874.100464,306.711975 
	C884.000549,306.711975 893.405945,306.711975 902.991516,306.711975 
	C902.991516,281.945099 903.041077,257.469238 902.943481,232.993912 
	C902.926941,228.847641 902.509460,224.668381 901.880981,220.565063 
	C899.060791,202.152191 888.718994,190.954086 870.603394,186.750259 
	C857.688599,183.753296 844.826538,184.588181 832.034119,187.743896 
	C821.715088,190.289459 811.812195,193.781494 802.695007,199.656296 
	C805.615295,206.781342 808.370911,213.504654 811.171997,220.338837 
	C814.662415,218.580658 817.700928,216.862122 820.885254,215.479355 
	C833.402588,210.043747 846.223022,206.197693 860.097412,209.006546 
	C865.255859,210.050858 869.939453,212.518997 871.447876,217.688095 
	C873.199768,223.691299 873.722961,230.053024 874.847717,236.659912 
	C871.146606,236.659912 868.984985,236.630600 866.824463,236.664581 
	C850.838928,236.915894 834.797668,236.871109 819.378357,241.970123 
	C802.231201,247.640503 794.436035,261.578674 798.644714,279.156189 
	C802.313232,294.477600 812.691345,303.352081 827.448914,307.154297 
	C843.102661,311.187378 857.536560,309.211243 869.589111,296.058716 
M952.274292,299.247925 
	C965.145630,307.515869 979.440613,309.839508 994.339233,308.678192 
	C1007.427063,307.658020 1019.865906,304.189178 1030.589966,296.152954 
	C1031.706543,295.316162 1033.166992,293.312317 1032.848389,292.444824 
	C1030.424438,285.846008 1027.597168,279.395264 1024.840942,272.766785 
	C1001.340942,290.379913 978.282471,286.716339 968.189697,275.815948 
	C956.551025,263.246094 955.425110,234.252731 966.319031,220.225952 
	C970.916870,214.305862 977.000549,210.794159 984.325378,209.533966 
	C999.516968,206.920334 1012.656189,211.982025 1024.838379,221.112015 
	C1027.220459,215.343201 1029.129395,209.830200 1031.744019,204.675186 
	C1033.774414,200.672302 1032.868530,198.372681 1029.246338,196.207626 
	C1008.226074,183.643143 986.085693,181.110092 963.245483,189.880066 
	C943.197449,197.577881 931.854370,213.150696 928.668945,234.007462 
	C924.781433,259.462128 929.202515,282.504089 952.274292,299.247925 
M1413.539185,185.073257 
	C1396.666870,186.108231 1381.311035,190.072006 1371.836548,206.427139 
	C1371.836548,200.407928 1371.836548,194.388718 1371.836548,188.156158 
	C1361.923950,188.156158 1352.530518,188.156158 1342.952637,188.156158 
	C1342.952637,227.756500 1342.952637,267.135223 1342.952637,306.758179 
	C1352.951294,306.758179 1362.840698,306.758179 1373.084595,306.758179 
	C1373.084595,304.945770 1373.084229,303.316833 1373.084595,301.687927 
	C1373.088623,281.876953 1372.981567,262.065094 1373.132690,242.255234 
	C1373.251587,226.660278 1380.799927,217.016983 1395.478149,213.341217 
	C1398.365601,212.618118 1401.365479,212.296402 1404.332153,211.947159 
	C1409.858398,211.296570 1415.398560,210.761795 1421.151123,210.155807 
	C1420.460449,201.418976 1419.820557,193.324051 1419.164795,185.027298 
	C1417.400146,185.027298 1415.929932,185.027298 1413.539185,185.073257 
M548.038940,192.694931 
	C559.060852,185.927353 563.742920,175.015472 560.402893,163.879456 
	C556.943176,152.344193 547.020081,145.445770 534.106079,146.152054 
	C530.950562,146.324631 529.913269,145.072067 528.542908,142.730118 
	C521.008606,129.854385 509.889374,123.091805 494.735107,124.023216 
	C481.330597,124.847084 471.641327,131.515610 465.356842,143.355515 
	C464.682098,144.626770 463.293213,145.892471 461.952026,146.378922 
	C448.063538,151.416321 441.032745,161.873260 443.050995,174.785843 
	C444.978912,187.120590 455.880585,195.443054 470.276093,195.467834 
	C491.597595,195.504532 512.920715,195.618790 534.239380,195.372070 
	C538.617188,195.321411 542.978333,193.826859 548.038940,192.694931 
M386.065247,182.411209 
	C372.309784,172.215271 355.481201,171.785278 342.469086,181.297318 
	C329.811462,190.550140 324.565155,207.025024 329.593140,221.731110 
	C334.412903,235.828186 347.383331,245.627777 361.791351,246.057968 
	C377.339294,246.522171 390.917450,237.981613 396.680786,224.112762 
	C402.675079,209.688110 398.900665,194.224823 386.065247,182.411209 
M574.499329,266.625977 
	C580.330078,266.610718 586.179565,266.886322 591.987366,266.513519 
	C601.195312,265.922455 607.968872,258.554749 607.868591,249.769867 
	C607.770935,241.215652 600.920715,234.345932 592.014099,233.429169 
	C590.246155,233.247192 588.028198,232.109573 587.020081,230.697220 
	C576.858276,216.460403 557.787170,216.634064 547.955200,231.136032 
	C547.109375,232.383591 545.798401,233.587158 544.430542,234.165039 
	C535.976624,237.736618 531.624390,244.881653 533.175903,253.018494 
	C534.715210,261.091431 541.454834,266.461121 550.508606,266.599731 
	C558.170654,266.717072 565.835815,266.625183 574.499329,266.625977 
z"/>
<path fill="#FDFDFD" opacity="1.000000" stroke="none" 
	d="
M1717.255249,185.636353 
	C1735.658569,188.757843 1746.708862,201.247696 1747.858154,221.931030 
	C1748.901367,240.707809 1748.592651,259.561554 1748.797729,278.382263 
	C1748.899170,287.693268 1748.815552,297.006256 1748.815552,306.659973 
	C1738.682129,306.659973 1728.770874,306.659973 1718.191895,306.659973 
	C1718.191895,305.054321 1718.192017,303.293182 1718.192017,301.532043 
	C1718.191406,279.700775 1718.331055,257.867981 1718.090210,236.039383 
	C1718.030273,230.620804 1717.223022,225.091766 1715.879272,219.838608 
	C1714.462402,214.299011 1710.291260,211.086868 1704.610107,209.709351 
	C1687.409180,205.538681 1673.513184,217.480774 1673.106567,237.456268 
	C1672.750488,254.947571 1673.000854,272.451233 1672.986084,289.949432 
	C1672.981445,295.430328 1672.985352,300.911224 1672.985352,306.697021 
	C1662.878540,306.697021 1652.962280,306.697021 1642.524902,306.697021 
	C1642.524902,304.977692 1642.524902,303.184509 1642.524902,301.391327 
	C1642.524780,280.393341 1642.542358,259.395294 1642.506226,238.397369 
	C1642.500488,235.068817 1642.391357,231.728043 1642.088989,228.414917 
	C1641.381592,220.664459 1639.595947,213.176056 1631.189087,210.408401 
	C1621.877563,207.342819 1613.003418,208.709747 1605.732056,215.821075 
	C1600.627808,220.812653 1598.102539,227.252579 1597.959839,234.246368 
	C1597.572510,253.233948 1597.568237,272.229462 1597.431396,291.221954 
	C1597.394409,296.360107 1597.425903,301.498718 1597.425903,306.817566 
	C1587.229492,306.817566 1577.442627,306.817566 1567.325928,306.817566 
	C1567.325928,267.337646 1567.325928,227.807556 1567.325928,188.097992 
	C1577.038330,188.097992 1586.637329,188.097992 1596.597412,188.097992 
	C1596.597412,192.997162 1596.597412,197.769150 1596.597412,204.268539 
	C1606.192505,189.879318 1618.971558,184.757935 1634.273315,184.962631 
	C1650.086304,185.174164 1662.273926,191.298462 1668.987183,206.903412 
	C1680.566650,189.069061 1696.815674,182.968201 1717.255249,185.636353 
z"/>
<path fill="#FDFDFD" opacity="1.000000" stroke="none" 
	d="
M1276.873047,316.661926 
	C1282.588501,306.249237 1280.649170,295.264801 1281.038208,284.549652 
	C1280.624634,284.505615 1280.151367,284.365082 1280.096313,284.462128 
	C1265.523560,310.100952 1215.818726,312.354187 1197.168457,277.943359 
	C1184.883789,255.277328 1185.177490,231.746017 1197.869263,209.277115 
	C1210.637939,186.671738 1240.993774,177.979614 1264.087769,189.959717 
	C1270.363403,193.215225 1275.504395,198.658127 1280.823730,202.828659 
	C1280.823730,198.991241 1280.823730,193.672668 1280.823730,188.146423 
	C1291.140991,188.146423 1300.886475,188.146423 1310.610718,188.146423 
	C1310.806641,188.474045 1311.105591,188.740524 1311.105469,189.006912 
	C1311.092896,226.655029 1311.339355,264.306305 1310.919434,301.950104 
	C1310.668701,324.424805 1299.038940,340.931091 1279.724243,348.006622 
	C1264.644897,353.530670 1249.090576,353.747009 1233.429565,351.511627 
	C1219.806274,349.567169 1206.968506,345.321350 1195.126343,337.368652 
	C1197.876831,330.403503 1200.599976,323.507538 1203.317871,316.624878 
	C1210.408203,319.584503 1217.240479,322.872162 1224.363403,325.311066 
	C1236.019531,329.302124 1248.040649,330.560272 1260.260498,328.137024 
	C1267.284180,326.744202 1272.864502,323.132904 1276.873047,316.661926 
M1279.997925,255.237396 
	C1280.000977,247.962906 1280.869751,240.561798 1279.828125,233.440140 
	C1277.619995,218.343033 1266.885498,209.343262 1251.830200,208.692902 
	C1235.949707,208.006943 1224.881592,216.007309 1220.834839,231.149841 
	C1218.416504,240.198563 1218.388672,249.309464 1221.088013,258.249695 
	C1224.336914,269.009369 1231.037231,276.598999 1242.435425,279.047241 
	C1261.021973,283.039459 1274.238525,274.867767 1279.997925,255.237396 
z"/>
<path fill="#FEFEFE" opacity="1.000000" stroke="none" 
	d="
M1052.871216,156.000153 
	C1052.871216,148.872986 1052.871216,142.245789 1052.871216,135.373505 
	C1063.009521,135.373505 1072.757568,135.373505 1083.062012,135.373505 
	C1083.062012,157.896744 1083.062012,180.390518 1083.062012,204.441574 
	C1091.435425,192.795425 1101.779785,186.574783 1114.355225,185.644180 
	C1122.494019,185.041901 1131.136841,185.519608 1138.963745,187.665634 
	C1153.798218,191.732986 1160.326172,203.590714 1162.950439,217.892303 
	C1163.667847,221.801926 1164.103638,225.821060 1164.119629,229.792160 
	C1164.222290,255.274719 1164.171997,280.757904 1164.171997,306.620850 
	C1154.334106,306.620850 1144.458740,306.620850 1133.954468,306.620850 
	C1133.954468,305.235718 1133.954346,303.647461 1133.954346,302.059174 
	C1133.954224,280.405182 1133.998291,258.750977 1133.913086,237.097336 
	C1133.898071,233.286652 1133.604126,229.435196 1132.987183,225.676727 
	C1131.262451,215.169434 1124.910645,209.637329 1114.312866,209.071182 
	C1095.779053,208.081116 1083.414429,219.929901 1083.225220,239.383469 
	C1083.008301,261.700256 1083.174927,284.020752 1083.174927,306.670166 
	C1073.188843,306.670166 1063.296021,306.670166 1052.871216,306.670166 
	C1052.871216,256.637299 1052.871216,206.568710 1052.871216,156.000153 
z"/>
<path fill="#FBFBFB" opacity="1.000000" stroke="none" 
	d="
M668.060913,135.116119 
	C713.022827,135.116119 757.492371,135.116119 802.356812,135.116119 
	C802.356812,143.675522 802.356812,152.054169 802.356812,160.914032 
	C784.030457,160.914032 765.637390,160.914032 746.783936,160.914032 
	C746.783936,209.756088 746.783936,258.126068 746.783936,306.750244 
	C736.085876,306.750244 725.851440,306.750244 715.182861,306.750244 
	C715.182861,258.255615 715.182861,209.877487 715.182861,161.067200 
	C696.355286,161.067200 677.953003,161.067200 659.327759,161.067200 
	C659.327759,152.371216 659.327759,144.106430 659.327759,135.116119 
	C662.055481,135.116119 664.812012,135.116119 668.060913,135.116119 
z"/>
<path fill="#FDFDFD" opacity="1.000000" stroke="none" 
	d="
M1453.715210,215.604935 
	C1450.438965,217.255859 1447.488892,218.706573 1444.237061,220.305679 
	C1441.406494,213.396744 1438.651245,206.671616 1435.755127,199.602646 
	C1447.629517,192.259079 1460.397461,187.481979 1474.000610,186.183746 
	C1483.808105,185.247742 1494.049316,185.242111 1503.695679,187.010635 
	C1521.760620,190.322540 1532.000977,201.992920 1534.875122,220.101593 
	C1535.551147,224.360565 1535.969971,228.707336 1535.988281,233.015915 
	C1536.092163,257.479980 1536.038574,281.944672 1536.038574,306.706360 
	C1526.479004,306.706360 1517.074097,306.706360 1507.109131,306.706360 
	C1507.109131,301.455353 1507.109131,296.114105 1507.109131,289.875031 
	C1489.781616,318.610535 1450.387695,310.829620 1437.596436,292.290314 
	C1430.197144,281.565948 1429.015259,270.127747 1433.235352,258.111359 
	C1435.957031,250.361969 1442.004272,245.135178 1449.612427,243.192947 
	C1460.491333,240.415710 1471.667114,238.518860 1482.829712,237.230209 
	C1490.681274,236.323776 1498.721924,237.055008 1506.771973,237.055008 
	C1506.771973,232.471680 1507.194946,228.613708 1506.692505,224.880295 
	C1505.201172,213.800278 1499.198853,208.699905 1487.338257,208.118103 
	C1475.599854,207.542282 1464.651123,210.738770 1453.715210,215.604935 
M1492.536011,252.899506 
	C1485.167480,253.904999 1477.736206,254.592438 1470.452515,256.028137 
	C1465.615723,256.981506 1462.236816,260.321533 1461.073975,265.324493 
	C1458.879639,274.765289 1464.143066,283.470947 1473.530029,286.127747 
	C1492.847778,291.595367 1510.754639,273.530548 1506.434692,252.871399 
	C1502.138184,252.871399 1497.830688,252.871399 1492.536011,252.899506 
z"/>
<path fill="#FDFDFD" opacity="1.000000" stroke="none" 
	d="
M869.356018,296.330017 
	C857.536560,309.211243 843.102661,311.187378 827.448914,307.154297 
	C812.691345,303.352081 802.313232,294.477600 798.644714,279.156189 
	C794.436035,261.578674 802.231201,247.640503 819.378357,241.970123 
	C834.797668,236.871109 850.838928,236.915894 866.824463,236.664581 
	C868.984985,236.630600 871.146606,236.659912 874.847717,236.659912 
	C873.722961,230.053024 873.199768,223.691299 871.447876,217.688095 
	C869.939453,212.518997 865.255859,210.050858 860.097412,209.006546 
	C846.223022,206.197693 833.402588,210.043747 820.885254,215.479355 
	C817.700928,216.862122 814.662415,218.580658 811.171997,220.338837 
	C808.370911,213.504654 805.615295,206.781342 802.695007,199.656296 
	C811.812195,193.781494 821.715088,190.289459 832.034119,187.743896 
	C844.826538,184.588181 857.688599,183.753296 870.603394,186.750259 
	C888.718994,190.954086 899.060791,202.152191 901.880981,220.565063 
	C902.509460,224.668381 902.926941,228.847641 902.943481,232.993912 
	C903.041077,257.469238 902.991516,281.945099 902.991516,306.711975 
	C893.405945,306.711975 884.000549,306.711975 874.100464,306.711975 
	C874.100464,301.428406 874.100464,296.061615 874.100464,289.582642 
	C872.140320,292.396423 870.864746,294.227570 869.356018,296.330017 
M828.870667,276.167603 
	C832.208862,283.488800 838.180481,286.770477 845.946899,286.960541 
	C864.046875,287.403564 876.013672,272.711823 873.463806,252.004608 
	C862.662964,252.954803 851.695557,253.237640 840.985657,255.045654 
	C829.297607,257.018829 825.811890,263.579193 828.870667,276.167603 
z"/>
<path fill="#FCFCFC" opacity="1.000000" stroke="none" 
	d="
M951.959839,299.068604 
	C929.202515,282.504089 924.781433,259.462128 928.668945,234.007462 
	C931.854370,213.150696 943.197449,197.577881 963.245483,189.880066 
	C986.085693,181.110092 1008.226074,183.643143 1029.246338,196.207626 
	C1032.868530,198.372681 1033.774414,200.672302 1031.744019,204.675186 
	C1029.129395,209.830200 1027.220459,215.343201 1024.838379,221.112015 
	C1012.656189,211.982025 999.516968,206.920334 984.325378,209.533966 
	C977.000549,210.794159 970.916870,214.305862 966.319031,220.225952 
	C955.425110,234.252731 956.551025,263.246094 968.189697,275.815948 
	C978.282471,286.716339 1001.340942,290.379913 1024.840942,272.766785 
	C1027.597168,279.395264 1030.424438,285.846008 1032.848389,292.444824 
	C1033.166992,293.312317 1031.706543,295.316162 1030.589966,296.152954 
	C1019.865906,304.189178 1007.427063,307.658020 994.339233,308.678192 
	C979.440613,309.839508 965.145630,307.515869 951.959839,299.068604 
z"/>
<path fill="#FEFEFE" opacity="1.000000" stroke="none" 
	d="
M1413.999512,185.050278 
	C1415.929932,185.027298 1417.400146,185.027298 1419.164795,185.027298 
	C1419.820557,193.324051 1420.460449,201.418976 1421.151123,210.155807 
	C1415.398560,210.761795 1409.858398,211.296570 1404.332153,211.947159 
	C1401.365479,212.296402 1398.365601,212.618118 1395.478149,213.341217 
	C1380.799927,217.016983 1373.251587,226.660278 1373.132690,242.255234 
	C1372.981567,262.065094 1373.088623,281.876953 1373.084595,301.687927 
	C1373.084229,303.316833 1373.084595,304.945770 1373.084595,306.758179 
	C1362.840698,306.758179 1352.951294,306.758179 1342.952637,306.758179 
	C1342.952637,267.135223 1342.952637,227.756500 1342.952637,188.156158 
	C1352.530518,188.156158 1361.923950,188.156158 1371.836548,188.156158 
	C1371.836548,194.388718 1371.836548,200.407928 1371.836548,206.427139 
	C1381.311035,190.072006 1396.666870,186.108231 1413.999512,185.050278 
z"/>
<path fill="#E4A499" opacity="1.000000" stroke="none" 
	d="
M387.006592,363.848053 
	C362.847260,363.902405 338.687958,363.971344 314.528625,364.006226 
	C297.197662,364.031250 279.861786,364.213898 262.540588,363.801819 
	C259.794861,363.736511 255.632263,361.460571 254.777756,359.202637 
	C253.693939,356.338837 254.040680,351.223785 255.981689,349.195099 
	C271.760529,332.703247 287.994995,316.643860 304.237946,300.601837 
	C308.384460,296.506653 313.199158,296.775360 317.536133,301.002014 
	C325.053741,308.328339 332.409576,315.820465 339.847198,323.229034 
	C344.188599,327.553497 353.856476,327.163513 357.901978,322.500427 
	C366.962158,312.057068 376.007843,301.601166 385.657837,291.187561 
	C387.140472,292.474274 388.024719,293.723816 388.810425,295.291748 
	C380.410095,305.189880 372.108276,314.769623 363.806427,324.349365 
	C364.073792,324.784332 364.341187,325.219299 364.608551,325.654266 
	C371.180389,323.991638 377.752197,322.329010 384.672424,320.812927 
	C386.390747,322.324249 387.760681,323.689056 388.895630,325.328308 
	C375.711090,331.482605 361.896149,332.426666 346.669861,332.058777 
	C352.367157,337.708496 357.287537,342.186951 361.702026,347.118317 
	C364.280273,349.998474 366.050079,353.602325 369.045563,358.205017 
	C373.730194,358.205017 380.368958,358.205017 387.005676,358.607941 
	C387.004578,360.623260 387.005585,362.235657 387.006592,363.848053 
M313.172699,305.860901 
	C310.481934,303.190552 308.603180,304.812988 306.529236,306.897278 
	C291.859253,321.640228 277.084503,336.279297 262.474976,351.081573 
	C261.151001,352.423004 260.755157,354.680450 259.928284,356.512482 
	C261.718079,357.018066 263.506561,357.958954 265.297821,357.964325 
	C295.248810,358.054199 325.200256,358.059113 355.151123,357.951324 
	C357.067902,357.944427 358.980835,356.863220 360.895569,356.281769 
	C359.998596,354.473969 359.491028,352.282043 358.144867,350.917297 
	C343.422943,335.992218 328.569977,321.196381 313.172699,305.860901 
z"/>
<path fill="#E6B2A3" opacity="1.000000" stroke="none" 
	d="
M547.693054,192.846390 
	C542.978333,193.826859 538.617188,195.321411 534.239380,195.372070 
	C512.920715,195.618790 491.597595,195.504532 470.276093,195.467834 
	C455.880585,195.443054 444.978912,187.120590 443.050995,174.785843 
	C441.032745,161.873260 448.063538,151.416321 461.952026,146.378922 
	C463.293213,145.892471 464.682098,144.626770 465.356842,143.355515 
	C471.641327,131.515610 481.330597,124.847084 494.735107,124.023216 
	C509.889374,123.091805 521.008606,129.854385 528.542908,142.730118 
	C529.913269,145.072067 530.950562,146.324631 534.106079,146.152054 
	C547.020081,145.445770 556.943176,152.344193 560.402893,163.879456 
	C563.742920,175.015472 559.060852,185.927353 547.693054,192.846390 
M458.019409,154.271790 
	C455.376038,157.390991 451.790466,160.109085 450.260651,163.702377 
	C445.050507,175.940170 454.466827,188.604874 468.665009,188.705887 
	C490.830505,188.863602 512.997986,188.751770 535.164612,188.713745 
	C536.817383,188.710907 538.493530,188.506546 540.118225,188.188797 
	C550.066895,186.243118 556.376770,177.277954 554.950623,167.200012 
	C553.604309,157.685211 544.693726,150.751785 534.870850,151.784317 
	C532.145081,152.070847 529.484009,152.972107 526.598572,153.636139 
	C525.973877,151.944168 525.468689,150.373550 524.824036,148.862473 
	C520.268188,138.183609 512.194092,131.717819 500.758972,130.217972 
	C489.639465,128.759521 480.507568,133.045074 473.618896,141.849197 
	C467.191010,150.064423 467.261780,150.119797 458.019409,154.271790 
z"/>
<path fill="#EABBAA" opacity="1.000000" stroke="none" 
	d="
M492.304077,239.104828 
	C507.167938,253.795364 522.054932,268.462585 536.890015,283.182159 
	C556.757080,302.894653 576.584656,322.646851 596.425476,342.385803 
	C597.369385,343.324860 598.339050,344.248688 599.190247,345.268402 
	C602.315369,349.012024 603.477478,353.217041 601.332703,357.774750 
	C599.200012,362.306915 595.415222,364.069061 590.392944,364.054352 
	C557.574341,363.958069 524.755371,363.989899 491.468994,363.508911 
	C491.004272,361.428131 491.007050,359.818329 491.472717,358.135376 
	C520.882141,358.052399 549.828735,358.042664 578.775269,358.032562 
	C582.435181,358.031281 586.129761,358.324829 589.740723,357.903137 
	C591.609802,357.684845 594.322876,356.584595 594.869202,355.185577 
	C595.562622,353.409943 594.694397,350.842529 594.005981,348.781342 
	C593.627747,347.649017 592.240601,346.850433 591.300049,345.909637 
	C565.541321,320.144714 539.781494,294.380768 514.021729,268.616913 
	C504.079651,258.673248 504.079437,258.673462 492.225220,266.423859 
	C492.369659,263.323944 492.666382,260.605927 493.148285,257.610229 
	C494.873871,256.492004 496.414276,255.651428 498.052246,254.757645 
	C495.553131,252.047394 493.263031,249.563797 490.983521,246.633118 
	C491.430817,243.825638 491.867462,241.465225 492.304077,239.104828 
z"/>
<path fill="#E5AFA0" opacity="1.000000" stroke="none" 
	d="
M492.172394,238.831268 
	C491.867462,241.465225 491.430817,243.825638 490.669556,246.509857 
	C485.041779,241.395798 479.738586,235.957916 474.388519,230.471970 
	C471.169861,232.372543 468.543121,233.776474 466.068146,235.410278 
	C454.825531,242.831970 447.172394,253.475266 440.192841,264.661438 
	C432.641235,276.764374 425.658844,289.245117 417.656769,301.037628 
	C410.503357,311.579559 401.273132,320.180023 389.130615,325.053864 
	C387.760681,323.689056 386.390747,322.324249 384.955566,320.571960 
	C395.845764,315.791595 404.908722,308.683716 411.559357,299.151154 
	C420.196960,286.770691 427.914642,273.749329 436.057281,261.022369 
	C443.446289,249.473206 451.658142,238.640076 463.070068,230.675964 
	C465.578735,228.925217 468.202332,227.339249 471.062531,225.490234 
	C468.942322,223.436829 467.148651,221.708679 465.364899,219.970337 
	C460.578491,215.305679 458.338379,215.413467 453.949341,220.350525 
	C444.805237,230.636414 435.595245,240.863770 426.458710,251.156342 
	C421.566895,256.667175 416.729797,262.227966 411.942078,267.829498 
	C404.232117,276.849945 396.583466,285.922699 388.908936,294.973358 
	C388.024719,293.723816 387.140472,292.474274 385.943878,291.032745 
	C394.739594,280.073761 403.758667,269.229919 412.977509,258.558594 
	C425.336700,244.252167 437.854401,230.082657 450.296112,215.847412 
	C455.919678,209.413147 462.287567,209.012161 468.362854,214.959518 
	C476.325287,222.754272 484.154327,230.685287 492.172394,238.831268 
z"/>
<path fill="#E5AFA0" opacity="1.000000" stroke="none" 
	d="
M492.963135,257.887939 
	C492.666382,260.605927 492.369659,263.323944 492.049530,266.680969 
	C487.315765,274.274231 481.503113,280.742126 478.167694,288.302856 
	C473.775299,298.259491 471.251526,309.051147 468.066284,319.526917 
	C463.809540,333.526733 459.703552,347.575653 446.781250,358.025665 
	C454.907227,358.025665 461.979004,358.001892 469.050568,358.032257 
	C476.370422,358.063660 483.690063,358.147552 491.009796,358.208496 
	C491.007050,359.818329 491.004272,361.428131 491.005432,363.440247 
	C456.650909,363.890167 422.292480,363.937866 387.470306,363.916809 
	C387.005585,362.235657 387.004578,360.623260 387.468750,358.534973 
	C399.419373,358.052246 410.907593,357.884491 422.389618,358.079834 
	C436.373810,358.317749 446.506561,352.137299 452.352600,339.699493 
	C455.862793,332.231415 458.263458,324.224976 460.931091,316.381653 
	C465.039734,304.301636 468.368073,291.919678 473.126984,280.108856 
	C476.954895,270.608612 483.458771,262.711090 492.963135,257.887939 
z"/>
<path fill="#E2A498" opacity="1.000000" stroke="none" 
	d="
M386.339478,182.640244 
	C398.900665,194.224823 402.675079,209.688110 396.680786,224.112762 
	C390.917450,237.981613 377.339294,246.522171 361.791351,246.057968 
	C347.383331,245.627777 334.412903,235.828186 329.593140,221.731110 
	C324.565155,207.025024 329.811462,190.550140 342.469086,181.297318 
	C355.481201,171.785278 372.309784,172.215271 386.339478,182.640244 
M382.951111,232.492828 
	C383.778229,231.672363 384.649292,230.891266 385.425751,230.025391 
	C394.431549,219.982437 395.688751,205.662811 388.566345,194.451538 
	C381.471649,183.283844 368.066528,178.175461 355.556793,181.872330 
	C342.520386,185.724854 333.620667,197.502960 334.006561,210.902771 
	C334.348602,222.780579 340.207855,231.537415 350.672180,236.791214 
	C361.898407,242.427505 372.596375,240.613022 382.951111,232.492828 
z"/>
<path fill="#DEB2A2" opacity="1.000000" stroke="none" 
	d="
M573.999512,266.625916 
	C565.835815,266.625183 558.170654,266.717072 550.508606,266.599731 
	C541.454834,266.461121 534.715210,261.091431 533.175903,253.018494 
	C531.624390,244.881653 535.976624,237.736618 544.430542,234.165039 
	C545.798401,233.587158 547.109375,232.383591 547.955200,231.136032 
	C557.787170,216.634064 576.858276,216.460403 587.020081,230.697220 
	C588.028198,232.109573 590.246155,233.247192 592.014099,233.429169 
	C600.920715,234.345932 607.770935,241.215652 607.868591,249.769867 
	C607.968872,258.554749 601.195312,265.922455 591.987366,266.513519 
	C586.179565,266.886322 580.330078,266.610718 573.999512,266.625916 
M572.506226,227.351334 
	C562.744812,225.382538 555.807495,227.931488 552.069946,235.310608 
	C550.774841,237.867615 549.373840,239.310196 546.455750,239.991455 
	C541.025330,241.259247 538.205872,245.757782 538.765564,251.162094 
	C539.290100,256.226379 542.967285,260.042145 548.377747,260.118164 
	C562.829529,260.321167 577.289124,260.360840 591.739319,260.106781 
	C598.144775,259.994202 602.272583,254.648956 601.308289,248.726364 
	C600.332214,242.731430 594.289429,238.826309 588.266602,240.329056 
	C586.906799,240.668320 585.577332,241.129028 583.986633,241.608353 
	C582.185425,235.291748 579.487671,230.069702 572.506226,227.351334 
z"/>
<path fill="#020202" opacity="1.000000" stroke="none" 
	d="
M1279.939697,255.654572 
	C1274.238525,274.867767 1261.021973,283.039459 1242.435425,279.047241 
	C1231.037231,276.598999 1224.336914,269.009369 1221.088013,258.249695 
	C1218.388672,249.309464 1218.416504,240.198563 1220.834839,231.149841 
	C1224.881592,216.007309 1235.949707,208.006943 1251.830200,208.692902 
	C1266.885498,209.343262 1277.619995,218.343033 1279.828125,233.440140 
	C1280.869751,240.561798 1280.000977,247.962906 1279.939697,255.654572 
z"/>
<path fill="#030303" opacity="1.000000" stroke="none" 
	d="
M1493.029663,252.885452 
	C1497.830688,252.871399 1502.138184,252.871399 1506.434692,252.871399 
	C1510.754639,273.530548 1492.847778,291.595367 1473.530029,286.127747 
	C1464.143066,283.470947 1458.879639,274.765289 1461.073975,265.324493 
	C1462.236816,260.321533 1465.615723,256.981506 1470.452515,256.028137 
	C1477.736206,254.592438 1485.167480,253.904999 1493.029663,252.885452 
z"/>
<path fill="#030303" opacity="1.000000" stroke="none" 
	d="
M828.710327,275.787781 
	C825.811890,263.579193 829.297607,257.018829 840.985657,255.045654 
	C851.695557,253.237640 862.662964,252.954803 873.463806,252.004608 
	C876.013672,272.711823 864.046875,287.403564 845.946899,286.960541 
	C838.180481,286.770477 832.208862,283.488800 828.710327,275.787781 
z"/>
<path fill="#020202" opacity="1.000000" stroke="none" 
	d="
M493.148254,257.610229 
	C483.458771,262.711090 476.954895,270.608612 473.126984,280.108856 
	C468.368073,291.919678 465.039734,304.301636 460.931091,316.381653 
	C458.263458,324.224976 455.862793,332.231415 452.352600,339.699493 
	C446.506561,352.137299 436.373810,358.317749 422.389618,358.079834 
	C410.907593,357.884491 399.419373,358.052246 387.470825,358.132080 
	C380.368958,358.205017 373.730194,358.205017 369.045563,358.205017 
	C366.050079,353.602325 364.280273,349.998474 361.702026,347.118317 
	C357.287537,342.186951 352.367157,337.708496 346.669861,332.058777 
	C361.896149,332.426666 375.711090,331.482605 388.895630,325.328308 
	C401.273132,320.180023 410.503357,311.579559 417.656769,301.037628 
	C425.658844,289.245117 432.641235,276.764374 440.192841,264.661438 
	C447.172394,253.475266 454.825531,242.831970 466.068146,235.410278 
	C468.543121,233.776474 471.169861,232.372543 474.388519,230.471970 
	C479.738586,235.957916 485.041779,241.395798 490.658936,246.956940 
	C493.263031,249.563797 495.553131,252.047394 498.052246,254.757645 
	C496.414276,255.651428 494.873871,256.492004 493.148254,257.610229 
M421.015900,347.455780 
	C420.993927,345.705811 421.533203,343.782928 418.516998,343.878265 
	C413.117249,344.048828 407.708221,343.926331 402.158875,343.926331 
	C402.158875,346.139130 402.158875,347.864258 402.158875,350.004211 
	C407.940674,350.004211 413.519043,350.056732 419.093506,349.933258 
	C419.741394,349.918915 420.367676,348.929749 421.015900,347.455780 
M423.633911,327.866241 
	C418.264709,327.295410 420.226105,330.958740 420.000061,333.665192 
	C425.235840,333.665192 430.120941,333.665192 435.220093,333.665192 
	C435.112091,331.595612 435.021179,329.853394 434.917480,327.865845 
	C431.200256,327.865845 427.898499,327.865845 423.633911,327.866241 
M384.399902,335.108246 
	C381.295715,335.108246 378.191498,335.108246 375.073334,335.108246 
	C375.073334,337.464691 375.073334,339.202911 375.073334,340.903503 
	C380.251129,340.903503 385.115112,340.903503 389.887329,340.903503 
	C389.887329,338.877441 389.887329,337.254272 389.887329,335.342896 
	C388.254822,335.258423 386.803436,335.183350 384.399902,335.108246 
z"/>
<path fill="#010101" opacity="1.000000" stroke="none" 
	d="
M313.462646,306.113159 
	C328.569977,321.196381 343.422943,335.992218 358.144867,350.917297 
	C359.491028,352.282043 359.998596,354.473969 360.895569,356.281738 
	C358.980835,356.863220 357.067902,357.944427 355.151123,357.951324 
	C325.200256,358.059113 295.248810,358.054199 265.297821,357.964325 
	C263.506561,357.958954 261.718079,357.018066 259.928284,356.512512 
	C260.755157,354.680450 261.151001,352.423004 262.474976,351.081573 
	C277.084503,336.279297 291.859253,321.640228 306.529236,306.897278 
	C308.603180,304.812988 310.481934,303.190552 313.462646,306.113159 
z"/>
<path fill="#050303" opacity="1.000000" stroke="none" 
	d="
M388.810425,295.291748 
	C396.583466,285.922699 404.232117,276.849945 411.942078,267.829498 
	C416.729797,262.227966 421.566895,256.667175 426.458710,251.156342 
	C435.595245,240.863770 444.805237,230.636414 453.949341,220.350525 
	C458.338379,215.413467 460.578491,215.305679 465.364899,219.970337 
	C467.148651,221.708679 468.942322,223.436829 471.062531,225.490234 
	C468.202332,227.339249 465.578735,228.925217 463.070068,230.675964 
	C451.658142,238.640076 443.446289,249.473206 436.057281,261.022369 
	C427.914642,273.749329 420.196960,286.770691 411.559357,299.151154 
	C404.908722,308.683716 395.845764,315.791595 384.607178,320.425415 
	C377.752197,322.329010 371.180389,323.991638 364.608551,325.654266 
	C364.341187,325.219299 364.073792,324.784332 363.806427,324.349365 
	C372.108276,314.769623 380.410095,305.189880 388.810425,295.291748 
z"/>
<path fill="#020202" opacity="1.000000" stroke="none" 
	d="
M458.360901,154.103394 
	C467.261780,150.119797 467.191010,150.064423 473.618896,141.849197 
	C480.507568,133.045074 489.639465,128.759521 500.758972,130.217972 
	C512.194092,131.717819 520.268188,138.183609 524.824036,148.862473 
	C525.468689,150.373550 525.973877,151.944168 526.598572,153.636139 
	C529.484009,152.972107 532.145081,152.070847 534.870850,151.784317 
	C544.693726,150.751785 553.604309,157.685211 554.950623,167.200012 
	C556.376770,177.277954 550.066895,186.243118 540.118225,188.188797 
	C538.493530,188.506546 536.817383,188.710907 535.164612,188.713745 
	C512.997986,188.751770 490.830505,188.863602 468.665009,188.705887 
	C454.466827,188.604874 445.050507,175.940170 450.260651,163.702377 
	C451.790466,160.109085 455.376038,157.390991 458.360901,154.103394 
z"/>
<path fill="#010101" opacity="1.000000" stroke="none" 
	d="
M491.472717,358.135376 
	C483.690063,358.147552 476.370422,358.063660 469.050568,358.032257 
	C461.979004,358.001892 454.907227,358.025665 446.781250,358.025665 
	C459.703552,347.575653 463.809540,333.526733 468.066284,319.526917 
	C471.251526,309.051147 473.775299,298.259491 478.167694,288.302856 
	C481.503113,280.742126 487.315765,274.274231 492.201843,267.062927 
	C504.079437,258.673462 504.079651,258.673248 514.021729,268.616913 
	C539.781494,294.380768 565.541321,320.144714 591.300049,345.909637 
	C592.240601,346.850433 593.627747,347.649017 594.005981,348.781342 
	C594.694397,350.842529 595.562622,353.409943 594.869202,355.185577 
	C594.322876,356.584595 591.609802,357.684845 589.740723,357.903137 
	C586.129761,358.324829 582.435181,358.031281 578.775269,358.032562 
	C549.828735,358.042664 520.882141,358.052399 491.472717,358.135376 
z"/>
<path fill="#020101" opacity="1.000000" stroke="none" 
	d="
M382.678589,232.726227 
	C372.596375,240.613022 361.898407,242.427505 350.672180,236.791214 
	C340.207855,231.537415 334.348602,222.780579 334.006561,210.902771 
	C333.620667,197.502960 342.520386,185.724854 355.556793,181.872330 
	C368.066528,178.175461 381.471649,183.283844 388.566345,194.451538 
	C395.688751,205.662811 394.431549,219.982437 385.425751,230.025391 
	C384.649292,230.891266 383.778229,231.672363 382.678589,232.726227 
z"/>
<path fill="#020101" opacity="1.000000" stroke="none" 
	d="
M572.867676,227.548126 
	C579.487671,230.069702 582.185425,235.291748 583.986633,241.608353 
	C585.577332,241.129028 586.906799,240.668320 588.266602,240.329056 
	C594.289429,238.826309 600.332214,242.731430 601.308289,248.726364 
	C602.272583,254.648956 598.144775,259.994202 591.739319,260.106781 
	C577.289124,260.360840 562.829529,260.321167 548.377747,260.118164 
	C542.967285,260.042145 539.290100,256.226379 538.765564,251.162094 
	C538.205872,245.757782 541.025330,241.259247 546.455750,239.991455 
	C549.373840,239.310196 550.774841,237.867615 552.069946,235.310608 
	C555.807495,227.931488 562.744812,225.382538 572.867676,227.548126 
z"/>
<path fill="#EBAEA1" opacity="1.000000" stroke="none" 
	d="
M421.009949,347.924133 
	C420.367676,348.929749 419.741394,349.918915 419.093506,349.933258 
	C413.519043,350.056732 407.940674,350.004211 402.158875,350.004211 
	C402.158875,347.864258 402.158875,346.139130 402.158875,343.926331 
	C407.708221,343.926331 413.117249,344.048828 418.516998,343.878265 
	C421.533203,343.782928 420.993927,345.705811 421.009949,347.924133 
z"/>
<path fill="#EAAFA1" opacity="1.000000" stroke="none" 
	d="
M424.115356,327.866028 
	C427.898499,327.865845 431.200256,327.865845 434.917480,327.865845 
	C435.021179,329.853394 435.112091,331.595612 435.220093,333.665192 
	C430.120941,333.665192 425.235840,333.665192 420.000061,333.665192 
	C420.226105,330.958740 418.264709,327.295410 424.115356,327.866028 
z"/>
<path fill="#E3A69A" opacity="1.000000" stroke="none" 
	d="
M384.875977,335.108246 
	C386.803436,335.183350 388.254822,335.258423 389.887329,335.342896 
	C389.887329,337.254272 389.887329,338.877441 389.887329,340.903503 
	C385.115112,340.903503 380.251129,340.903503 375.073334,340.903503 
	C375.073334,339.202911 375.073334,337.464691 375.073334,335.108246 
	C378.191498,335.108246 381.295715,335.108246 384.875977,335.108246 
z"/>
</svg>