<svg version="1.1" id="Layer_1" xmlns="http://www.w3.org/2000/svg" xmlns:xlink="http://www.w3.org/1999/xlink" x="0px" y="0px"
	 width="100%" viewBox="0 0 1536 350" enable-background="new 0 0 1536 350" xml:space="preserve">
<path fill="#000000" opacity="1.000000" stroke="none" 
	d="
M1117.000000,351.000000 
	C744.715942,351.000000 372.931824,351.000000 1.073869,351.000000 
	C1.073869,234.398071 1.073869,117.796082 1.073869,1.097047 
	C513.000000,1.097047 1025.000000,1.097047 1536.971924,1.097047 
	C1536.971924,117.734940 1536.971924,234.367477 1536.971924,351.000000 
	C1397.129272,351.000000 1257.314697,351.000000 1117.000000,351.000000 
M230.945953,128.375854 
	C250.905380,128.384842 270.867767,128.606033 290.823181,128.328156 
	C304.124481,128.142960 314.216095,118.535614 315.201141,105.974548 
	C316.224457,92.924759 307.707794,81.625771 294.800323,79.394859 
	C291.434265,78.813057 287.882233,79.307228 284.415619,79.307228 
	C284.720795,78.897507 285.025970,78.487785 285.331146,78.078064 
	C280.486084,73.114189 276.312408,67.131279 270.653412,63.402855 
	C259.564728,56.097118 247.395432,54.066277 234.358688,60.969742 
	C233.526566,61.539886 232.694458,62.110031 231.291016,62.835876 
	C230.860840,63.214291 230.430664,63.592709 229.344086,64.139397 
	C226.415573,67.494987 223.015427,70.559547 220.708176,74.298508 
	C218.872086,77.273941 217.072876,79.108131 213.612564,80.272713 
	C197.067017,85.841217 191.453842,105.983704 202.481232,119.299210 
	C209.781616,128.114395 219.499222,129.410629 230.945953,128.375854 
M162.313400,197.243362 
	C145.541367,216.623947 128.792023,236.024292 111.953957,255.347321 
	C110.617661,256.880829 108.666656,257.878662 106.102409,258.972504 
	C99.279984,260.074127 94.211258,257.603973 89.706703,252.302460 
	C84.656204,246.358444 78.764015,241.127441 73.212982,235.611435 
	C66.533806,228.974396 62.736420,229.013977 55.955143,235.786072 
	C44.173504,247.551758 32.404987,259.330566 20.633514,271.106415 
	C17.102562,274.638702 13.567052,278.166565 10.057631,281.720184 
	C6.925668,284.891571 6.665462,289.091248 8.703115,292.281647 
	C10.184535,294.601166 13.827735,296.578949 16.656204,296.799835 
	C24.434502,297.407318 32.291306,297.020386 40.117016,297.008118 
	C72.747757,296.957062 105.378471,296.899109 138.936340,296.980286 
	C175.960098,296.933136 212.983841,296.885986 250.934692,296.978027 
	C282.241394,296.987823 313.548157,297.020813 344.854828,296.991364 
	C352.902008,296.983795 358.304871,290.289093 355.798645,283.068787 
	C354.865601,280.380768 352.831940,277.862457 350.757996,275.816223 
	C333.485535,258.774506 315.985352,241.963058 298.754578,224.879715 
	C282.478271,208.742630 266.444916,192.360504 250.045059,175.539246 
	C240.408463,166.215744 230.766922,156.897354 221.137192,147.566757 
	C215.786407,142.382202 207.740265,143.050873 204.021088,148.991547 
	C201.851227,152.457443 198.663712,155.281723 195.967484,158.423355 
	C184.945358,171.266434 173.936096,184.120560 162.313400,197.243362 
M1502.814941,223.497437 
	C1502.553955,200.680740 1503.325684,177.793243 1501.768066,155.065414 
	C1499.859253,127.215424 1482.167358,114.875183 1454.434082,118.662796 
	C1440.867188,120.515656 1430.551636,127.794441 1423.043579,140.043045 
	C1416.292236,124.307945 1404.103271,118.186195 1388.296509,117.963417 
	C1372.987793,117.747665 1360.207397,122.868355 1350.620605,137.240585 
	C1350.620605,130.785889 1350.620605,126.016304 1350.620605,121.270828 
	C1340.540527,121.270828 1330.829224,121.270828 1321.309082,121.270828 
	C1321.309082,161.026367 1321.309082,200.430374 1321.309082,239.839828 
	C1331.411499,239.839828 1341.201050,239.839828 1351.425049,239.839828 
	C1351.425049,230.548096 1351.368164,221.412308 1351.437744,212.277451 
	C1351.553345,197.120132 1351.297241,181.940292 1352.069458,166.814438 
	C1352.597656,156.466721 1357.118164,147.820724 1367.552124,143.766556 
	C1383.052979,137.743652 1394.775757,145.003128 1396.093506,161.345734 
	C1396.360962,164.663055 1396.501099,167.999588 1396.506836,171.327606 
	C1396.543457,192.322784 1396.525635,213.318054 1396.525757,234.313293 
	C1396.525757,236.110931 1396.525757,237.908569 1396.525757,239.725372 
	C1406.914551,239.725372 1416.824585,239.725372 1426.984863,239.725372 
	C1426.984863,236.477295 1426.983032,233.503983 1426.985229,230.530655 
	C1427.000610,210.535309 1426.778320,190.536102 1427.102661,170.545746 
	C1427.400269,152.190643 1438.341187,141.154907 1454.579468,142.072830 
	C1463.353271,142.568787 1469.012451,146.972595 1470.825073,155.568710 
	C1471.811523,160.246063 1472.104736,165.138184 1472.134033,169.936951 
	C1472.266113,191.597900 1472.192139,213.260101 1472.192505,234.921860 
	C1472.192505,236.524780 1472.192505,238.127701 1472.192505,239.701996 
	C1482.696289,239.701996 1492.605103,239.701996 1502.814941,239.701996 
	C1502.814941,234.436493 1502.814941,229.465973 1502.814941,223.497437 
M993.276794,285.135834 
	C1000.749390,285.115204 1008.253601,285.533264 1015.689026,284.997223 
	C1046.181030,282.799042 1064.632812,263.632538 1064.973633,233.074371 
	C1065.386108,196.104004 1065.113647,159.125977 1065.119995,122.151276 
	C1065.120117,121.871414 1064.873779,121.591499 1064.725952,121.276421 
	C1054.875732,121.276421 1045.015137,121.276421 1034.778564,121.276421 
	C1034.778564,126.834114 1034.778564,132.040497 1034.778564,136.157562 
	C1029.929932,132.104218 1025.300781,126.913574 1019.568909,123.673882 
	C996.129578,110.425827 964.374634,119.739197 951.058167,143.334625 
	C942.387512,158.698120 941.166016,175.260880 944.122742,192.226807 
	C949.353760,222.242752 975.502991,240.811859 1005.370422,235.819000 
	C1017.594543,233.775528 1027.572876,227.804871 1034.855347,216.276855 
	C1034.855347,223.736801 1035.280273,230.048264 1034.772339,236.283707 
	C1033.472290,252.242050 1023.955200,261.164490 1007.837524,262.111450 
	C997.422241,262.723328 987.188904,261.665253 977.391235,258.018768 
	C970.638611,255.505600 964.086243,252.454483 957.328125,249.594604 
	C954.597656,256.511932 951.875000,263.409485 949.101318,270.436218 
	C962.497925,279.131073 976.931274,283.583588 993.276794,285.135834 
M806.871582,188.499954 
	C806.871582,205.582489 806.871582,222.665024 806.871582,239.640778 
	C817.328674,239.640778 827.209656,239.640778 837.167175,239.640778 
	C837.167175,217.128769 837.044373,194.975342 837.203979,172.823959 
	C837.345276,153.214691 849.344421,141.330261 867.871338,142.054688 
	C878.757629,142.480362 885.247620,148.028473 886.995239,158.733109 
	C887.608948,162.492081 887.898865,166.343369 887.913757,170.154144 
	C887.998291,191.807709 887.954834,213.461746 887.954834,235.115631 
	C887.954834,236.697952 887.954834,238.280289 887.954834,239.779938 
	C898.398376,239.779938 908.173218,239.779938 918.175232,239.779938 
	C918.220154,238.777237 918.286499,237.982651 918.286621,237.188065 
	C918.289795,213.701935 918.363281,190.215347 918.225342,166.730026 
	C918.194153,161.426254 917.846802,156.051193 916.914490,150.839615 
	C914.126953,135.256851 906.366882,123.649956 890.091125,119.605270 
	C880.730042,117.278954 871.336182,117.300125 861.941833,119.755089 
	C851.957825,122.364166 844.039734,127.993690 837.012573,137.310181 
	C837.012573,113.365074 837.012573,90.866203 837.012573,68.392570 
	C826.712219,68.392570 816.964111,68.392570 806.871582,68.392570 
	C806.871582,108.273026 806.871582,147.886490 806.871582,188.499954 
M500.718903,122.500122 
	C500.718903,113.091049 500.718903,103.681976 500.718903,93.796715 
	C519.767090,93.796715 538.148743,93.796715 556.469849,93.796715 
	C556.469849,85.045952 556.469849,76.789719 556.469849,68.366821 
	C508.641022,68.366821 461.093933,68.366821 413.389771,68.366821 
	C413.389771,77.002945 413.389771,85.386513 413.389771,94.192963 
	C432.083313,94.192963 450.490234,94.192963 469.311951,94.192963 
	C469.311951,142.999237 469.311951,191.381165 469.311951,239.680649 
	C479.971008,239.680649 490.203186,239.680649 500.718903,239.680649 
	C500.718903,200.736984 500.718903,162.118561 500.718903,122.500122 
M1280.025513,132.509583 
	C1274.758423,126.079926 1267.851929,122.117188 1259.934082,120.247856 
	C1234.945190,114.348244 1211.963623,120.324356 1189.672729,132.378922 
	C1192.633667,139.597733 1195.431274,146.418274 1198.291870,153.392197 
	C1200.200439,152.391190 1201.659668,151.612396 1203.130737,150.856369 
	C1215.119751,144.694519 1227.643188,140.517471 1241.327637,141.125259 
	C1253.189819,141.652145 1259.197144,146.794189 1260.692261,157.872040 
	C1261.196167,161.605820 1260.772095,165.464859 1260.772095,170.055313 
	C1252.726562,170.055313 1244.685425,169.323822 1236.833618,170.230545 
	C1225.670166,171.519684 1214.494385,173.419418 1203.613770,176.194717 
	C1196.001953,178.136276 1189.954834,183.365143 1187.234131,191.113983 
	C1183.014893,203.130478 1184.204102,214.566711 1191.598999,225.295456 
	C1204.312256,243.740128 1243.676758,251.687973 1261.120361,222.883469 
	C1261.120361,229.119492 1261.120361,234.461090 1261.120361,239.700043 
	C1271.085083,239.700043 1280.490967,239.700043 1289.948730,239.700043 
	C1289.948730,213.429337 1290.181396,187.458923 1289.833130,161.496323 
	C1289.695557,151.237350 1286.962036,141.427765 1280.025513,132.509583 
M560.177612,141.336914 
	C561.843384,145.290405 563.509216,149.243896 565.243164,153.359146 
	C567.032043,152.419693 568.483643,151.641541 569.949097,150.890350 
	C581.944031,144.741516 594.461914,140.528336 608.152832,141.124039 
	C620.268738,141.651215 626.162964,146.789993 627.680054,158.277939 
	C628.151428,161.847229 627.753418,165.531326 627.753418,169.662689 
	C625.539856,169.662689 623.417297,169.635956 621.295532,169.666931 
	C605.146973,169.902649 588.940369,169.826233 573.361633,174.976517 
	C556.225037,180.641861 548.548645,194.568207 552.612854,212.173004 
	C556.054626,227.081696 568.613098,238.334122 584.819092,241.029907 
	C603.762634,244.181046 617.724792,238.712189 626.533386,224.702026 
	C626.806519,224.267578 627.178345,223.895172 628.145874,222.703323 
	C628.145874,229.057938 628.145874,234.334549 628.145874,239.796387 
	C637.828064,239.796387 647.230042,239.796387 657.014893,239.796387 
	C657.014893,238.139053 657.014893,236.682617 657.014893,235.226181 
	C657.014465,213.233902 657.074341,191.241348 656.967590,169.249588 
	C656.943420,164.269470 656.678772,159.241592 655.942749,154.322784 
	C653.413269,137.417252 644.913330,125.088028 627.752197,120.583641 
	C602.454712,113.943649 579.190613,120.299408 556.621948,132.298248 
	C557.865723,135.398941 558.909302,138.000488 560.177612,141.336914 
M748.302612,118.063820 
	C745.137451,118.052536 741.968201,117.930038 738.807861,118.047508 
	C712.649658,119.019814 691.690063,134.739304 684.390625,158.972702 
	C681.223694,169.486237 680.879333,180.242493 682.001709,191.127762 
	C684.353943,213.940430 698.906677,232.298889 720.272827,238.801727 
	C732.437317,242.504013 744.835205,242.882858 757.314941,240.463272 
	C767.211548,238.544510 776.593445,235.312210 784.654419,229.072601 
	C785.795532,228.189316 787.059143,225.916077 786.676208,224.865829 
	C784.353210,218.494385 781.568909,212.291077 778.923523,205.995544 
	C752.970581,221.494446 732.796570,221.849533 720.801941,207.167450 
	C709.796387,193.696121 710.221497,164.888443 721.340027,151.886658 
	C731.428528,140.089478 755.165588,136.272583 778.861755,154.001221 
	C781.236572,148.269836 783.352112,142.498337 786.011414,136.989334 
	C787.677185,133.538345 786.816223,131.681061 783.856323,129.657730 
	C773.388245,122.502090 761.639893,119.372650 748.302612,118.063820 
M1141.124023,124.521248 
	C1135.946777,129.194061 1130.769531,133.866867 1125.820801,138.333374 
	C1125.820801,133.400665 1125.820801,127.375313 1125.820801,121.162064 
	C1115.903198,121.162064 1106.505493,121.162064 1096.953247,121.162064 
	C1096.953247,160.792053 1096.953247,200.180954 1096.953247,239.742645 
	C1107.029541,239.742645 1116.920532,239.742645 1127.087402,239.742645 
	C1127.087402,218.362106 1127.017578,197.239212 1127.109253,176.117035 
	C1127.184326,158.839325 1135.227051,148.999985 1152.093018,145.918289 
	C1159.572266,144.551682 1167.200684,144.001251 1175.130127,143.035446 
	C1174.463501,134.589478 1173.814575,126.367172 1173.145142,117.883759 
	C1162.015503,118.221916 1151.481323,119.069199 1141.124023,124.521248 
M113.225288,107.789383 
	C93.174515,110.356331 79.769371,127.709152 82.024704,148.178223 
	C84.108253,167.088196 102.380058,181.153091 121.969116,178.925797 
	C141.402481,176.716217 155.006363,159.189789 153.073151,138.853256 
	C151.285904,120.052322 133.725632,106.017494 113.225288,107.789383 
M329.610229,154.725403 
	C317.949402,151.170181 308.644440,154.446686 301.850555,164.326340 
	C301.003540,165.558075 299.616943,166.666382 298.234741,167.241653 
	C290.113617,170.621567 285.793854,177.665100 287.130249,185.700409 
	C288.443085,193.594070 295.055145,199.276947 303.655609,199.572800 
	C309.637573,199.778580 315.632050,199.623596 321.620941,199.624252 
	C329.439819,199.625092 337.263306,199.787262 345.076355,199.572296 
	C353.237122,199.347748 359.201569,194.564468 361.185150,187.140930 
	C363.006378,180.324860 360.820740,171.593887 354.294556,169.684265 
	C345.100525,166.993958 338.794647,160.950485 331.701569,155.594284 
	C331.315308,155.302597 330.805084,155.174988 329.610229,154.725403 
z"/>
<path fill="#FDFDFD" opacity="1.000000" stroke="none" 
	d="
M1502.814941,223.996445 
	C1502.814941,229.465973 1502.814941,234.436493 1502.814941,239.701996 
	C1492.605103,239.701996 1482.696289,239.701996 1472.192505,239.701996 
	C1472.192505,238.127701 1472.192505,236.524780 1472.192505,234.921860 
	C1472.192139,213.260101 1472.266113,191.597900 1472.134033,169.936951 
	C1472.104736,165.138184 1471.811523,160.246063 1470.825073,155.568710 
	C1469.012451,146.972595 1463.353271,142.568787 1454.579468,142.072830 
	C1438.341187,141.154907 1427.400269,152.190643 1427.102661,170.545746 
	C1426.778320,190.536102 1427.000610,210.535309 1426.985229,230.530655 
	C1426.983032,233.503983 1426.984863,236.477295 1426.984863,239.725372 
	C1416.824585,239.725372 1406.914551,239.725372 1396.525757,239.725372 
	C1396.525757,237.908569 1396.525757,236.110931 1396.525757,234.313293 
	C1396.525635,213.318054 1396.543457,192.322784 1396.506836,171.327606 
	C1396.501099,167.999588 1396.360962,164.663055 1396.093506,161.345734 
	C1394.775757,145.003128 1383.052979,137.743652 1367.552124,143.766556 
	C1357.118164,147.820724 1352.597656,156.466721 1352.069458,166.814438 
	C1351.297241,181.940292 1351.553345,197.120132 1351.437744,212.277451 
	C1351.368164,221.412308 1351.425049,230.548096 1351.425049,239.839828 
	C1341.201050,239.839828 1331.411499,239.839828 1321.309082,239.839828 
	C1321.309082,200.430374 1321.309082,161.026367 1321.309082,121.270828 
	C1330.829224,121.270828 1340.540527,121.270828 1350.620605,121.270828 
	C1350.620605,126.016304 1350.620605,130.785889 1350.620605,137.240585 
	C1360.207397,122.868355 1372.987793,117.747665 1388.296509,117.963417 
	C1404.103271,118.186195 1416.292236,124.307945 1423.043579,140.043045 
	C1430.551636,127.794441 1440.867188,120.515656 1454.434082,118.662796 
	C1482.167358,114.875183 1499.859253,127.215424 1501.768066,155.065414 
	C1503.325684,177.793243 1502.553955,200.680740 1502.814941,223.996445 
z"/>
<path fill="#FDFDFD" opacity="1.000000" stroke="none" 
	d="
M992.826294,285.104370 
	C976.931274,283.583588 962.497925,279.131073 949.101318,270.436218 
	C951.875000,263.409485 954.597656,256.511932 957.328125,249.594604 
	C964.086243,252.454483 970.638611,255.505600 977.391235,258.018768 
	C987.188904,261.665253 997.422241,262.723328 1007.837524,262.111450 
	C1023.955200,261.164490 1033.472290,252.242050 1034.772339,236.283707 
	C1035.280273,230.048264 1034.855347,223.736801 1034.855347,216.276855 
	C1027.572876,227.804871 1017.594543,233.775528 1005.370422,235.819000 
	C975.502991,240.811859 949.353760,222.242752 944.122742,192.226807 
	C941.166016,175.260880 942.387512,158.698120 951.058167,143.334625 
	C964.374634,119.739197 996.129578,110.425827 1019.568909,123.673882 
	C1025.300781,126.913574 1029.929932,132.104218 1034.778564,136.157562 
	C1034.778564,132.040497 1034.778564,126.834114 1034.778564,121.276421 
	C1045.015137,121.276421 1054.875732,121.276421 1064.725952,121.276421 
	C1064.873779,121.591499 1065.120117,121.871414 1065.119995,122.151276 
	C1065.113647,159.125977 1065.386108,196.104004 1064.973633,233.074371 
	C1064.632812,263.632538 1046.181030,282.799042 1015.689026,284.997223 
	C1008.253601,285.533264 1000.749390,285.115204 992.826294,285.104370 
M978.113892,155.773514 
	C972.119202,167.515747 971.663757,179.793259 975.358276,192.156021 
	C979.374878,205.596283 990.475952,213.146851 1004.814636,212.945801 
	C1019.077332,212.745789 1029.776245,205.301041 1032.874268,191.407776 
	C1034.638428,183.496902 1034.745728,174.879150 1033.820923,166.782806 
	C1032.322388,153.664047 1023.418335,144.667343 1011.625671,142.221649 
	C997.823425,139.359177 986.105652,143.934326 978.113892,155.773514 
z"/>
<path fill="#FEFEFE" opacity="1.000000" stroke="none" 
	d="
M806.871582,187.999939 
	C806.871582,147.886490 806.871582,108.273026 806.871582,68.392570 
	C816.964111,68.392570 826.712219,68.392570 837.012573,68.392570 
	C837.012573,90.866203 837.012573,113.365074 837.012573,137.310181 
	C844.039734,127.993690 851.957825,122.364166 861.941833,119.755089 
	C871.336182,117.300125 880.730042,117.278954 890.091125,119.605270 
	C906.366882,123.649956 914.126953,135.256851 916.914490,150.839615 
	C917.846802,156.051193 918.194153,161.426254 918.225342,166.730026 
	C918.363281,190.215347 918.289795,213.701935 918.286621,237.188065 
	C918.286499,237.982651 918.220154,238.777237 918.175232,239.779938 
	C908.173218,239.779938 898.398376,239.779938 887.954834,239.779938 
	C887.954834,238.280289 887.954834,236.697952 887.954834,235.115631 
	C887.954834,213.461746 887.998291,191.807709 887.913757,170.154144 
	C887.898865,166.343369 887.608948,162.492081 886.995239,158.733109 
	C885.247620,148.028473 878.757629,142.480362 867.871338,142.054688 
	C849.344421,141.330261 837.345276,153.214691 837.203979,172.823959 
	C837.044373,194.975342 837.167175,217.128769 837.167175,239.640778 
	C827.209656,239.640778 817.328674,239.640778 806.871582,239.640778 
	C806.871582,222.665024 806.871582,205.582489 806.871582,187.999939 
z"/>
<path fill="#FBFBFB" opacity="1.000000" stroke="none" 
	d="
M500.718903,123.000130 
	C500.718903,162.118561 500.718903,200.736984 500.718903,239.680649 
	C490.203186,239.680649 479.971008,239.680649 469.311951,239.680649 
	C469.311951,191.381165 469.311951,142.999237 469.311951,94.192963 
	C450.490234,94.192963 432.083313,94.192963 413.389771,94.192963 
	C413.389771,85.386513 413.389771,77.002945 413.389771,68.366821 
	C461.093933,68.366821 508.641022,68.366821 556.469849,68.366821 
	C556.469849,76.789719 556.469849,85.045952 556.469849,93.796715 
	C538.148743,93.796715 519.767090,93.796715 500.718903,93.796715 
	C500.718903,103.681976 500.718903,113.091049 500.718903,123.000130 
z"/>
<path fill="#FDFDFD" opacity="1.000000" stroke="none" 
	d="
M1280.267822,132.774277 
	C1286.962036,141.427765 1289.695557,151.237350 1289.833130,161.496323 
	C1290.181396,187.458923 1289.948730,213.429337 1289.948730,239.700043 
	C1280.490967,239.700043 1271.085083,239.700043 1261.120361,239.700043 
	C1261.120361,234.461090 1261.120361,229.119492 1261.120361,222.883469 
	C1243.676758,251.687973 1204.312256,243.740128 1191.598999,225.295456 
	C1184.204102,214.566711 1183.014893,203.130478 1187.234131,191.113983 
	C1189.954834,183.365143 1196.001953,178.136276 1203.613770,176.194717 
	C1214.494385,173.419418 1225.670166,171.519684 1236.833618,170.230545 
	C1244.685425,169.323822 1252.726562,170.055313 1260.772095,170.055313 
	C1260.772095,165.464859 1261.196167,161.605820 1260.692261,157.872040 
	C1259.197144,146.794189 1253.189819,141.652145 1241.327637,141.125259 
	C1227.643188,140.517471 1215.119751,144.694519 1203.130737,150.856369 
	C1201.659668,151.612396 1200.200439,152.391190 1198.291870,153.392197 
	C1195.431274,146.418274 1192.633667,139.597733 1189.672729,132.378922 
	C1211.963623,120.324356 1234.945190,114.348244 1259.934082,120.247856 
	C1267.851929,122.117188 1274.758423,126.079926 1280.267822,132.774277 
M1221.755371,190.038879 
	C1215.415039,193.274094 1214.047607,198.824875 1214.929810,205.229507 
	C1215.919312,212.413086 1220.311279,217.025497 1227.057739,218.949783 
	C1236.355103,221.601700 1244.943481,219.628143 1252.082764,213.045059 
	C1260.067627,205.682144 1261.909424,196.229263 1260.754517,185.654022 
	C1247.650879,186.229355 1234.721558,184.727051 1221.755371,190.038879 
z"/>
<path fill="#FDFDFD" opacity="1.000000" stroke="none" 
	d="
M560.065247,140.969467 
	C558.909302,138.000488 557.865723,135.398941 556.621948,132.298248 
	C579.190613,120.299408 602.454712,113.943649 627.752197,120.583641 
	C644.913330,125.088028 653.413269,137.417252 655.942749,154.322784 
	C656.678772,159.241592 656.943420,164.269470 656.967590,169.249588 
	C657.074341,191.241348 657.014465,213.233902 657.014893,235.226181 
	C657.014893,236.682617 657.014893,238.139053 657.014893,239.796387 
	C647.230042,239.796387 637.828064,239.796387 628.145874,239.796387 
	C628.145874,234.334549 628.145874,229.057938 628.145874,222.703323 
	C627.178345,223.895172 626.806519,224.267578 626.533386,224.702026 
	C617.724792,238.712189 603.762634,244.181046 584.819092,241.029907 
	C568.613098,238.334122 556.054626,227.081696 552.612854,212.173004 
	C548.548645,194.568207 556.225037,180.641861 573.361633,174.976517 
	C588.940369,169.826233 605.146973,169.902649 621.295532,169.666931 
	C623.417297,169.635956 625.539856,169.662689 627.753418,169.662689 
	C627.753418,165.531326 628.151428,161.847229 627.680054,158.277939 
	C626.162964,146.789993 620.268738,141.651215 608.152832,141.124039 
	C594.461914,140.528336 581.944031,144.741516 569.949097,150.890350 
	C568.483643,151.641541 567.032043,152.419693 565.243164,153.359146 
	C563.509216,149.243896 561.843384,145.290405 560.065247,140.969467 
M591.643372,218.128967 
	C601.585754,221.884140 610.729370,220.230743 618.627380,213.348877 
	C626.986450,206.065277 628.816772,196.403351 627.652710,184.900543 
	C616.174500,185.966446 604.995056,186.350433 594.066650,188.209930 
	C583.854065,189.947632 579.202209,197.451599 582.326355,206.855637 
	C583.708862,211.017227 587.969299,214.222748 591.643372,218.128967 
z"/>
<path fill="#FCFCFC" opacity="1.000000" stroke="none" 
	d="
M748.773560,118.074844 
	C761.639893,119.372650 773.388245,122.502090 783.856323,129.657730 
	C786.816223,131.681061 787.677185,133.538345 786.011414,136.989334 
	C783.352112,142.498337 781.236572,148.269836 778.861755,154.001221 
	C755.165588,136.272583 731.428528,140.089478 721.340027,151.886658 
	C710.221497,164.888443 709.796387,193.696121 720.801941,207.167450 
	C732.796570,221.849533 752.970581,221.494446 778.923523,205.995544 
	C781.568909,212.291077 784.353210,218.494385 786.676208,224.865829 
	C787.059143,225.916077 785.795532,228.189316 784.654419,229.072601 
	C776.593445,235.312210 767.211548,238.544510 757.314941,240.463272 
	C744.835205,242.882858 732.437317,242.504013 720.272827,238.801727 
	C698.906677,232.298889 684.353943,213.940430 682.001709,191.127762 
	C680.879333,180.242493 681.223694,169.486237 684.390625,158.972702 
	C691.690063,134.739304 712.649658,119.019814 738.807861,118.047508 
	C741.968201,117.930038 745.137451,118.052536 748.773560,118.074844 
z"/>
<path fill="#FEFEFE" opacity="1.000000" stroke="none" 
	d="
M1141.440674,124.326004 
	C1151.481323,119.069199 1162.015503,118.221916 1173.145142,117.883759 
	C1173.814575,126.367172 1174.463501,134.589478 1175.130127,143.035446 
	C1167.200684,144.001251 1159.572266,144.551682 1152.093018,145.918289 
	C1135.227051,148.999985 1127.184326,158.839325 1127.109253,176.117035 
	C1127.017578,197.239212 1127.087402,218.362106 1127.087402,239.742645 
	C1116.920532,239.742645 1107.029541,239.742645 1096.953247,239.742645 
	C1096.953247,200.180954 1096.953247,160.792053 1096.953247,121.162064 
	C1106.505493,121.162064 1115.903198,121.162064 1125.820801,121.162064 
	C1125.820801,127.375313 1125.820801,133.400665 1125.820801,138.333374 
	C1130.769531,133.866867 1135.946777,129.194061 1141.440674,124.326004 
z"/>
<path fill="#E4A499" opacity="1.000000" stroke="none" 
	d="
M138.009201,296.843658 
	C105.378471,296.899109 72.747757,296.957062 40.117016,297.008118 
	C32.291306,297.020386 24.434502,297.407318 16.656204,296.799835 
	C13.827735,296.578949 10.184535,294.601166 8.703115,292.281647 
	C6.665462,289.091248 6.925668,284.891571 10.057631,281.720184 
	C13.567052,278.166565 17.102562,274.638702 20.633514,271.106415 
	C32.404987,259.330566 44.173504,247.551758 55.955143,235.786072 
	C62.736420,229.013977 66.533806,228.974396 73.212982,235.611435 
	C78.764015,241.127441 84.656204,246.358444 89.706703,252.302460 
	C94.211258,257.603973 99.279984,260.074127 106.551323,259.460876 
	C107.000565,261.598236 107.000893,263.247253 106.631775,264.975098 
	C104.833427,265.053925 103.404510,265.053925 100.504120,265.053925 
	C106.140923,270.582855 111.047752,274.992859 115.447639,279.861053 
	C118.131828,282.830902 120.035797,286.505981 123.195145,291.212341 
	C126.778511,291.212341 132.394958,291.212341 138.009003,291.614441 
	C138.007462,293.625549 138.008331,295.234619 138.009201,296.843658 
M99.922585,271.577423 
	C89.330696,260.983612 78.699760,250.428375 68.174843,239.768478 
	C65.596771,237.157303 63.628910,236.675308 60.753590,239.594009 
	C45.919144,254.652344 30.877213,269.506287 16.036907,284.558960 
	C14.852276,285.760529 14.648038,287.928711 13.988193,289.647675 
	C15.475463,290.108307 16.961731,290.967072 18.450153,290.970795 
	C49.076900,291.047760 79.703995,291.055115 110.330536,290.944489 
	C111.867981,290.938965 113.401131,289.744995 114.936287,289.104401 
	C114.217728,287.547821 113.830841,285.682434 112.720917,284.490204 
	C108.754051,280.229156 104.541901,276.196503 99.922585,271.577423 
z"/>
<path fill="#E7B1A2" opacity="1.000000" stroke="none" 
	d="
M138.472778,296.911987 
	C138.008331,295.234619 138.007462,293.625549 138.471756,291.541626 
	C151.404617,291.058960 163.875351,290.874817 176.339188,291.090057 
	C190.539093,291.335297 200.695114,284.964447 206.557495,272.366791 
	C210.034302,264.895416 212.351074,256.871582 215.011093,249.035629 
	C219.107513,236.968277 222.401810,224.580765 227.256302,212.833176 
	C231.432846,202.726212 238.551651,194.500671 248.976089,190.166473 
	C249.779037,192.414963 250.528107,194.272369 251.099335,196.424011 
	C241.677444,202.587128 235.655457,211.115677 232.009888,221.155655 
	C228.273590,231.445496 225.616196,242.124374 221.967743,252.449661 
	C218.715942,261.652435 215.161575,270.800446 210.931122,279.582642 
	C208.902008,283.794983 205.002350,287.106293 201.631897,291.213074 
	C218.040680,291.213074 234.024811,291.213074 250.007568,291.614746 
	C250.006683,293.623901 250.007141,295.231354 250.007599,296.838867 
	C212.983841,296.885986 175.960098,296.933136 138.472778,296.911987 
z"/>
<path fill="#EABCAB" opacity="1.000000" stroke="none" 
	d="
M251.277161,196.129776 
	C250.528107,194.272369 249.779037,192.414963 249.170013,189.912750 
	C250.185272,188.721970 251.060486,188.176010 251.944107,187.624802 
	C250.812302,186.270813 249.894028,185.172272 248.987183,183.630646 
	C249.433960,180.820419 249.869324,178.453293 250.304688,176.086166 
	C266.444916,192.360504 282.478271,208.742630 298.754578,224.879715 
	C315.985352,241.963058 333.485535,258.774506 350.757996,275.816223 
	C352.831940,277.862457 354.865601,280.380768 355.798645,283.068787 
	C358.304871,290.289093 352.902008,296.983795 344.854828,296.991364 
	C313.548157,297.020813 282.241394,296.987823 250.471146,296.908447 
	C250.007141,295.231354 250.006683,293.623901 250.470398,291.540558 
	C280.767517,291.053284 310.600464,291.042206 340.433411,291.029510 
	C341.933289,291.028870 343.446838,291.140869 344.930389,290.981140 
	C348.708344,290.574310 350.297668,288.199554 349.313660,284.734772 
	C348.766907,282.809692 347.289246,280.978882 345.825623,279.509521 
	C319.008545,252.587906 292.129700,225.727829 265.264679,198.853989 
	C259.169159,192.756454 259.170410,192.755188 251.277161,196.129776 
z"/>
<path fill="#E2A498" opacity="1.000000" stroke="none" 
	d="
M113.649506,107.736427 
	C133.725632,106.017494 151.285904,120.052322 153.073151,138.853256 
	C155.006363,159.189789 141.402481,176.716217 121.969116,178.925797 
	C102.380058,181.153091 84.108253,167.088196 82.024704,148.178223 
	C79.769371,127.709152 93.174515,110.356331 113.649506,107.736427 
M144.898834,131.876358 
	C144.217072,130.547638 143.614990,129.170456 142.841034,127.897812 
	C136.189255,116.959908 123.112213,111.428314 111.019241,114.401016 
	C98.296349,117.528557 88.582787,128.899277 87.994041,141.354370 
	C87.411781,153.672180 93.992851,164.751953 105.032219,170.039642 
	C115.786179,175.190643 128.058975,173.397461 137.100723,165.354141 
	C146.460220,157.028137 149.384644,145.092651 144.898834,131.876358 
z"/>
<path fill="#E7B1A2" opacity="1.000000" stroke="none" 
	d="
M250.174866,175.812714 
	C249.869324,178.453293 249.433960,180.820419 248.673126,183.507935 
	C242.455841,177.941666 236.653152,171.960205 230.588913,166.256866 
	C229.514679,165.246567 226.914627,164.547913 225.759476,165.142822 
	C216.910812,169.699890 208.838425,175.510208 203.310867,183.889374 
	C195.929337,195.078903 189.304733,206.764832 182.089005,218.067749 
	C177.536423,225.199036 172.497818,232.020065 167.347351,238.925613 
	C165.983795,237.508789 164.950104,236.146637 164.029022,234.472961 
	C170.016617,225.308243 175.787781,216.383881 181.792511,207.619553 
	C189.560669,196.281326 196.935715,184.597122 205.609833,173.985367 
	C210.705658,167.751205 217.994766,163.309845 224.558380,157.844727 
	C222.772903,156.162918 220.723816,154.219604 218.660126,152.291885 
	C215.115356,148.980652 211.571030,148.888855 208.223816,152.334045 
	C205.253281,155.391541 202.508896,158.673019 199.729919,161.911606 
	C188.497025,175.002304 177.289352,188.114609 165.942261,200.906998 
	C164.848785,199.386917 163.885437,198.178772 162.922089,196.970612 
	C173.936096,184.120560 184.945358,171.266434 195.967484,158.423355 
	C198.663712,155.281723 201.851227,152.457443 204.021088,148.991547 
	C207.740265,143.050873 215.786407,142.382202 221.137192,147.566757 
	C230.766922,156.897354 240.408463,166.215744 250.174866,175.812714 
z"/>
<path fill="#E7B6A6" opacity="1.000000" stroke="none" 
	d="
M234.976501,60.933849 
	C247.395432,54.066277 259.564728,56.097118 270.653412,63.402855 
	C276.312408,67.131279 280.486084,73.114189 285.331146,78.078064 
	C285.025970,78.487785 284.720795,78.897507 284.415619,79.307228 
	C287.882233,79.307228 291.434265,78.813057 294.800323,79.394859 
	C307.707794,81.625771 316.224457,92.924759 315.201141,105.974548 
	C314.216095,118.535614 304.124481,128.142960 290.823181,128.328156 
	C270.867767,128.606033 250.905380,128.384842 230.480377,127.819084 
	C230.010193,125.504669 230.005600,123.747017 230.460754,121.891037 
	C249.728882,121.777626 268.537292,121.773117 287.345612,121.731972 
	C289.334808,121.727623 291.352844,121.684456 293.307617,121.359215 
	C304.187378,119.548973 311.108704,109.540306 308.789246,99.095940 
	C306.427765,88.462151 295.608459,82.293861 284.887787,85.468781 
	C283.532562,85.870125 282.176514,86.268509 280.841766,86.662094 
	C272.845978,62.700825 249.880585,58.095387 235.042267,67.219910 
	C234.260635,67.608696 233.628387,68.299873 232.847198,69.269180 
	C231.870071,70.189117 231.041901,70.830910 230.154938,71.004837 
	C230.064255,68.348358 230.032379,66.159744 230.000504,63.971123 
	C230.430664,63.592709 230.860840,63.214291 231.742844,63.042473 
	C233.121948,62.477325 234.049225,61.705589 234.976501,60.933849 
z"/>
<path fill="#DEB2A2" opacity="1.000000" stroke="none" 
	d="
M329.981384,154.848206 
	C330.805084,155.174988 331.315308,155.302597 331.701569,155.594284 
	C338.794647,160.950485 345.100525,166.993958 354.294556,169.684265 
	C360.820740,171.593887 363.006378,180.324860 361.185150,187.140930 
	C359.201569,194.564468 353.237122,199.347748 345.076355,199.572296 
	C337.263306,199.787262 329.439819,199.625092 321.620941,199.624252 
	C315.632050,199.623596 309.637573,199.778580 303.655609,199.572800 
	C295.055145,199.276947 288.443085,193.594070 287.130249,185.700409 
	C285.793854,177.665100 290.113617,170.621567 298.234741,167.241653 
	C299.616943,166.666382 301.003540,165.558075 301.850555,164.326340 
	C308.644440,154.446686 317.949402,151.170181 329.981384,154.848206 
M333.933167,165.654877 
	C325.130646,156.619736 311.718719,157.678497 306.191772,168.082535 
	C304.756653,170.784042 303.361023,172.353653 300.223724,173.064713 
	C295.058319,174.235413 292.308868,178.716354 292.739075,183.914017 
	C293.161285,189.015244 296.801819,193.009109 302.136475,193.090363 
	C316.760620,193.313080 331.393860,193.349335 346.016327,193.075485 
	C352.135193,192.960907 356.163696,187.661377 355.347168,181.934891 
	C354.520782,176.139099 348.753082,172.022110 342.953186,173.186310 
	C341.398926,173.498291 339.911072,174.141144 338.452942,174.612640 
	C336.981018,171.583221 335.683655,168.913040 333.933167,165.654877 
z"/>
<path fill="#E2A89B" opacity="1.000000" stroke="none" 
	d="
M162.617737,197.106995 
	C163.885437,198.178772 164.848785,199.386917 165.837189,201.218414 
	C149.838333,220.350067 133.814438,238.858368 117.790535,257.366669 
	C118.027657,257.782104 118.264786,258.197540 118.501915,258.613007 
	C124.219727,257.195862 130.012802,256.025513 135.639572,254.309784 
	C147.093872,250.817123 155.874374,243.299881 163.916412,234.784485 
	C164.950104,236.146637 165.983795,237.508789 167.220795,239.218613 
	C151.606674,258.323090 131.012207,265.684601 107.001221,264.896271 
	C107.000893,263.247253 107.000565,261.598236 107.000778,259.537323 
	C108.666656,257.878662 110.617661,256.880829 111.953957,255.347321 
	C128.792023,236.024292 145.541367,216.623947 162.617737,197.106995 
z"/>
<path fill="#E6AFA1" opacity="1.000000" stroke="none" 
	d="
M230.001007,121.989372 
	C230.005600,123.747017 230.010193,125.504669 230.026276,127.702080 
	C219.499222,129.410629 209.781616,128.114395 202.481232,119.299210 
	C191.453842,105.983704 197.067017,85.841217 213.612564,80.272713 
	C217.072876,79.108131 218.872086,77.273941 220.708176,74.298508 
	C223.015427,70.559547 226.415573,67.494987 229.672302,64.055260 
	C230.032379,66.159744 230.064255,68.348358 230.020264,71.299362 
	C228.068314,74.782722 225.721054,77.301941 224.445694,80.280174 
	C223.110718,83.397621 221.408783,84.612640 218.034683,85.109077 
	C209.384460,86.381813 203.003098,94.268776 202.947845,102.945686 
	C202.891220,111.834709 208.914078,119.527145 217.625107,121.084229 
	C221.674942,121.808128 225.871155,121.713142 230.001007,121.989372 
z"/>
<path fill="#E6AFA1" opacity="1.000000" stroke="none" 
	d="
M234.667603,60.951797 
	C234.049225,61.705589 233.121948,62.477325 232.028503,62.964622 
	C232.694458,62.110031 233.526566,61.539886 234.667603,60.951797 
z"/>
<path fill="#020202" opacity="1.000000" stroke="none" 
	d="
M978.314636,155.461426 
	C986.105652,143.934326 997.823425,139.359177 1011.625671,142.221649 
	C1023.418335,144.667343 1032.322388,153.664047 1033.820923,166.782806 
	C1034.745728,174.879150 1034.638428,183.496902 1032.874268,191.407776 
	C1029.776245,205.301041 1019.077332,212.745789 1004.814636,212.945801 
	C990.475952,213.146851 979.374878,205.596283 975.358276,192.156021 
	C971.663757,179.793259 972.119202,167.515747 978.314636,155.461426 
z"/>
<path fill="#030303" opacity="1.000000" stroke="none" 
	d="
M1222.111328,189.902649 
	C1234.721558,184.727051 1247.650879,186.229355 1260.754517,185.654022 
	C1261.909424,196.229263 1260.067627,205.682144 1252.082764,213.045059 
	C1244.943481,219.628143 1236.355103,221.601700 1227.057739,218.949783 
	C1220.311279,217.025497 1215.919312,212.413086 1214.929810,205.229507 
	C1214.047607,198.824875 1215.415039,193.274094 1222.111328,189.902649 
z"/>
<path fill="#030303" opacity="1.000000" stroke="none" 
	d="
M591.283325,217.995621 
	C587.969299,214.222748 583.708862,211.017227 582.326355,206.855637 
	C579.202209,197.451599 583.854065,189.947632 594.066650,188.209930 
	C604.995056,186.350433 616.174500,185.966446 627.652710,184.900543 
	C628.816772,196.403351 626.986450,206.065277 618.627380,213.348877 
	C610.729370,220.230743 601.585754,221.884140 591.283325,217.995621 
z"/>
<path fill="#020202" opacity="1.000000" stroke="none" 
	d="
M106.631775,264.975098 
	C131.012207,265.684601 151.606674,258.323090 167.550659,239.273285 
	C172.497818,232.020065 177.536423,225.199036 182.089005,218.067749 
	C189.304733,206.764832 195.929337,195.078903 203.310867,183.889374 
	C208.838425,175.510208 216.910812,169.699890 225.759476,165.142822 
	C226.914627,164.547913 229.514679,165.246567 230.588913,166.256866 
	C236.653152,171.960205 242.455841,177.941666 248.661713,183.951050 
	C249.894028,185.172272 250.812302,186.270813 251.944107,187.624802 
	C251.060486,188.176010 250.185272,188.721970 249.116135,189.521667 
	C238.551651,194.500671 231.432846,202.726212 227.256302,212.833176 
	C222.401810,224.580765 219.107513,236.968277 215.011093,249.035629 
	C212.351074,256.871582 210.034302,264.895416 206.557495,272.366791 
	C200.695114,284.964447 190.539093,291.335297 176.339188,291.090057 
	C163.875351,290.874817 151.404617,291.058960 138.474152,291.139526 
	C132.394958,291.212341 126.778511,291.212341 123.195145,291.212341 
	C120.035797,286.505981 118.131828,282.830902 115.447639,279.861053 
	C111.047752,274.992859 106.140923,270.582855 100.504120,265.053925 
	C103.404510,265.053925 104.833427,265.053925 106.631775,264.975098 
M174.907455,277.635254 
	C168.631866,277.319397 162.356262,277.003540 155.846558,276.675903 
	C155.996002,279.385376 156.091217,281.111725 156.180801,282.736084 
	C162.683899,282.736084 168.722183,282.736084 175.004837,282.736084 
	C175.004837,281.167114 175.004837,279.871735 174.907455,277.635254 
M179.566193,260.865845 
	C177.790436,260.865845 176.014679,260.865845 174.146820,260.865845 
	C174.146820,263.136932 174.146820,264.868134 174.146820,266.636627 
	C179.273483,266.636627 184.146484,266.636627 189.223099,266.636627 
	C189.112671,264.544312 189.021042,262.808197 188.918518,260.865692 
	C185.816086,260.865692 183.175201,260.865692 179.566193,260.865845 
M133.553299,274.304291 
	C136.977737,274.304291 140.402176,274.304291 143.779419,274.304291 
	C143.779419,271.914551 143.779419,270.183868 143.779419,268.356628 
	C138.730682,268.356628 133.991470,268.356628 128.816315,268.356628 
	C129.106674,271.235626 127.139709,274.925903 133.553299,274.304291 
z"/>
<path fill="#010101" opacity="1.000000" stroke="none" 
	d="
M100.172562,271.827423 
	C104.541901,276.196503 108.754051,280.229156 112.720917,284.490204 
	C113.830841,285.682434 114.217728,287.547821 114.936279,289.104401 
	C113.401131,289.744995 111.867981,290.938965 110.330536,290.944489 
	C79.703995,291.055115 49.076900,291.047760 18.450153,290.970795 
	C16.961731,290.967072 15.475463,290.108307 13.988192,289.647675 
	C14.648038,287.928711 14.852276,285.760529 16.036907,284.558960 
	C30.877213,269.506287 45.919144,254.652344 60.753590,239.594009 
	C63.628910,236.675308 65.596771,237.157303 68.174843,239.768478 
	C78.699760,250.428375 89.330696,260.983612 100.172562,271.827423 
z"/>
<path fill="#010101" opacity="1.000000" stroke="none" 
	d="
M251.099335,196.424011 
	C259.170410,192.755188 259.169159,192.756454 265.264679,198.853989 
	C292.129700,225.727829 319.008545,252.587906 345.825623,279.509521 
	C347.289246,280.978882 348.766907,282.809692 349.313660,284.734772 
	C350.297668,288.199554 348.708344,290.574310 344.930389,290.981140 
	C343.446838,291.140869 341.933289,291.028870 340.433411,291.029510 
	C310.600464,291.042206 280.767517,291.053284 250.471741,291.138885 
	C234.024811,291.213074 218.040680,291.213074 201.631897,291.213074 
	C205.002350,287.106293 208.902008,283.794983 210.931122,279.582642 
	C215.161575,270.800446 218.715942,261.652435 221.967743,252.449661 
	C225.616196,242.124374 228.273590,231.445496 232.009888,221.155655 
	C235.655457,211.115677 241.677444,202.587128 251.099335,196.424011 
z"/>
<path fill="#020101" opacity="1.000000" stroke="none" 
	d="
M145.008774,132.253296 
	C149.384644,145.092651 146.460220,157.028137 137.100723,165.354141 
	C128.058975,173.397461 115.786179,175.190643 105.032219,170.039642 
	C93.992851,164.751953 87.411781,153.672180 87.994041,141.354370 
	C88.582787,128.899277 98.296349,117.528557 111.019241,114.401016 
	C123.112213,111.428314 136.189255,116.959908 142.841034,127.897812 
	C143.614990,129.170456 144.217072,130.547638 145.008774,132.253296 
z"/>
<path fill="#040303" opacity="1.000000" stroke="none" 
	d="
M164.029022,234.472961 
	C155.874374,243.299881 147.093872,250.817123 135.639572,254.309784 
	C130.012802,256.025513 124.219727,257.195862 118.501915,258.613007 
	C118.264786,258.197540 118.027657,257.782104 117.790535,257.366669 
	C133.814438,238.858368 149.838333,220.350067 165.967300,201.530350 
	C177.289352,188.114609 188.497025,175.002304 199.729919,161.911606 
	C202.508896,158.673019 205.253281,155.391541 208.223816,152.334045 
	C211.571030,148.888855 215.115356,148.980652 218.660126,152.291885 
	C220.723816,154.219604 222.772903,156.162918 224.558380,157.844727 
	C217.994766,163.309845 210.705658,167.751205 205.609833,173.985367 
	C196.935715,184.597122 189.560669,196.281326 181.792511,207.619553 
	C175.787781,216.383881 170.016617,225.308243 164.029022,234.472961 
z"/>
<path fill="#020202" opacity="1.000000" stroke="none" 
	d="
M230.460754,121.891037 
	C225.871155,121.713142 221.674942,121.808128 217.625107,121.084229 
	C208.914078,119.527145 202.891220,111.834709 202.947845,102.945686 
	C203.003098,94.268776 209.384460,86.381813 218.034683,85.109077 
	C221.408783,84.612640 223.110718,83.397621 224.445694,80.280174 
	C225.721054,77.301941 228.068314,74.782722 230.079071,71.767227 
	C231.041901,70.830910 231.870071,70.189117 233.115784,69.224335 
	C234.086105,68.441666 234.638885,67.981987 235.191681,67.522293 
	C249.880585,58.095387 272.845978,62.700825 280.841766,86.662094 
	C282.176514,86.268509 283.532562,85.870125 284.887787,85.468781 
	C295.608459,82.293861 306.427765,88.462151 308.789246,99.095940 
	C311.108704,109.540306 304.187378,119.548973 293.307617,121.359215 
	C291.352844,121.684456 289.334808,121.727623 287.345612,121.731972 
	C268.537292,121.773117 249.728882,121.777626 230.460754,121.891037 
z"/>
<path fill="#E6AFA1" opacity="1.000000" stroke="none" 
	d="
M235.042282,67.219910 
	C234.638885,67.981987 234.086105,68.441666 233.264740,68.946198 
	C233.628387,68.299873 234.260635,67.608696 235.042282,67.219910 
z"/>
<path fill="#020101" opacity="1.000000" stroke="none" 
	d="
M334.159729,165.948853 
	C335.683655,168.913040 336.981018,171.583221 338.452942,174.612640 
	C339.911072,174.141144 341.398926,173.498291 342.953186,173.186310 
	C348.753082,172.022110 354.520782,176.139099 355.347168,181.934891 
	C356.163696,187.661377 352.135193,192.960907 346.016327,193.075485 
	C331.393860,193.349335 316.760620,193.313080 302.136475,193.090363 
	C296.801819,193.009109 293.161285,189.015244 292.739075,183.914017 
	C292.308868,178.716354 295.058319,174.235413 300.223724,173.064713 
	C303.361023,172.353653 304.756653,170.784042 306.191772,168.082535 
	C311.718719,157.678497 325.130646,156.619736 334.159729,165.948853 
z"/>
<path fill="#EBAEA1" opacity="1.000000" stroke="none" 
	d="
M174.956146,278.105774 
	C175.004837,279.871735 175.004837,281.167114 175.004837,282.736084 
	C168.722183,282.736084 162.683899,282.736084 156.180801,282.736084 
	C156.091217,281.111725 155.996002,279.385376 155.846558,276.675903 
	C162.356262,277.003540 168.631866,277.319397 174.956146,278.105774 
z"/>
<path fill="#EAAFA1" opacity="1.000000" stroke="none" 
	d="
M180.050262,260.865784 
	C183.175201,260.865692 185.816086,260.865692 188.918518,260.865692 
	C189.021042,262.808197 189.112671,264.544312 189.223099,266.636627 
	C184.146484,266.636627 179.273483,266.636627 174.146820,266.636627 
	C174.146820,264.868134 174.146820,263.136932 174.146820,260.865845 
	C176.014679,260.865845 177.790436,260.865845 180.050262,260.865784 
z"/>
<path fill="#E3A69A" opacity="1.000000" stroke="none" 
	d="
M133.064087,274.304077 
	C127.139709,274.925903 129.106674,271.235626 128.816315,268.356628 
	C133.991470,268.356628 138.730682,268.356628 143.779419,268.356628 
	C143.779419,270.183868 143.779419,271.914551 143.779419,274.304291 
	C140.402176,274.304291 136.977737,274.304291 133.064087,274.304077 
z"/>
</svg>