<svg version="1.1" id="Layer_1" xmlns="http://www.w3.org/2000/svg" xmlns:xlink="http://www.w3.org/1999/xlink" x="0px" y="0px"
	 width="100%" viewBox="0 0 2000 1500" enable-background="new 0 0 2000 1500" xml:space="preserve">
<path fill="#000000" opacity="1.000000" stroke="none" 
	d="
M1836.000000,1501.000000 
	C1224.000122,1501.000000 612.500366,1501.000000 1.000410,1501.000000 
	C1.000273,1001.000305 1.000273,501.000671 1.000137,1.000746 
	C667.666138,1.000497 1334.332275,1.000497 2000.998779,1.000249 
	C2000.999268,500.999298 2000.999268,1000.998596 2000.999634,1500.999023 
	C1946.166626,1501.000000 1891.333374,1501.000000 1836.000000,1501.000000 
M411.242310,767.935120 
	C393.459839,788.460022 375.680115,808.987305 357.892883,829.508179 
	C353.851379,834.170837 344.187653,834.553772 339.838959,830.219543 
	C332.639404,823.043884 325.495117,815.812500 318.257172,808.675903 
	C312.890961,803.384827 308.448822,803.340149 303.129791,808.629944 
	C287.769287,823.906189 272.545227,839.320190 257.113922,854.524170 
	C253.507263,858.077759 252.774902,862.007568 254.489014,866.318909 
	C256.140167,870.471863 259.911285,871.065186 264.042816,871.056824 
	C301.704132,870.980713 339.365692,871.028076 377.027161,871.008728 
	C389.021301,871.002563 401.015350,870.904175 413.936859,870.983459 
	C438.923096,870.992554 463.909363,871.004639 488.895599,871.010010 
	C522.876953,871.017334 556.858276,871.039062 590.839661,871.009033 
	C598.741028,871.002075 604.114990,864.758301 601.906372,857.612366 
	C600.981323,854.619568 598.739197,851.774109 596.460205,849.498108 
	C554.383057,807.476685 512.210876,765.550354 470.050140,723.612610 
	C468.753815,722.322998 467.473907,720.974915 465.999023,719.914734 
	C461.499573,716.680603 454.471802,717.504761 451.043640,721.493530 
	C442.830261,731.050232 434.555450,740.554382 426.379883,750.143127 
	C421.464417,755.908264 416.688599,761.792419 411.242310,767.935120 
M1597.426392,811.095825 
	C1597.426514,803.097168 1597.372437,795.098145 1597.438477,787.100037 
	C1597.566406,771.608948 1597.224731,756.088806 1598.078613,740.635986 
	C1598.954468,724.783020 1610.084961,715.187073 1624.985474,716.077148 
	C1633.718018,716.598755 1639.068970,720.673584 1640.943604,729.163391 
	C1642.010132,733.992981 1642.418213,739.050781 1642.454468,744.010742 
	C1642.611816,765.505676 1642.523071,787.002441 1642.523804,808.498535 
	C1642.523804,810.265625 1642.523804,812.032654 1642.523804,813.661316 
	C1653.056030,813.661316 1662.963379,813.661316 1672.985962,813.661316 
	C1672.985962,805.663025 1672.980225,798.006775 1672.987061,790.350464 
	C1673.000732,775.020081 1672.747803,759.683228 1673.107056,744.360840 
	C1673.574341,724.421997 1687.506836,712.507629 1704.697998,716.732239 
	C1710.378662,718.128174 1714.511230,721.379578 1715.906738,726.924011 
	C1717.230347,732.183289 1718.031738,737.708862 1718.090820,743.127930 
	C1718.328857,764.954651 1718.190552,786.785583 1718.191162,808.614929 
	C1718.191284,810.359863 1718.191162,812.104797 1718.191162,813.631226 
	C1728.836060,813.631226 1738.742676,813.631226 1748.678711,813.631226 
	C1748.678711,787.612000 1748.768433,761.964539 1748.598267,736.318787 
	C1748.566528,731.526794 1747.840698,726.667419 1746.835327,721.967407 
	C1743.798950,707.769592 1736.334229,697.327698 1721.546265,693.438477 
	C1701.210205,688.090332 1681.921021,695.260742 1670.011230,712.620605 
	C1669.797607,712.932007 1669.381958,713.104675 1668.808960,713.527832 
	C1662.219360,698.343323 1650.184448,692.237793 1634.555908,691.969421 
	C1619.202271,691.705811 1606.335449,696.705383 1596.815186,711.015991 
	C1596.815186,704.908447 1596.815186,700.171631 1596.815186,695.184326 
	C1586.706665,695.184326 1576.998901,695.184326 1567.222412,695.184326 
	C1567.222412,734.846863 1567.222412,774.254395 1567.222412,813.999573 
	C1576.738159,813.999573 1586.032349,814.042542 1595.324219,813.913940 
	C1596.031860,813.904175 1596.722656,812.678528 1597.426392,811.095825 
M1307.260498,827.769287 
	C1308.536011,820.599060 1310.834473,813.440247 1310.914917,806.256592 
	C1311.321411,769.946045 1311.152954,733.629089 1311.169556,697.314331 
	C1311.169922,696.564148 1310.972656,695.813782 1310.888550,695.213379 
	C1300.760254,695.213379 1291.013672,695.213379 1280.915527,695.213379 
	C1280.915527,700.725769 1280.915527,705.953735 1280.915527,709.989197 
	C1275.503906,705.733826 1270.297974,700.171692 1263.919312,696.886902 
	C1240.438965,684.795654 1210.088013,694.250183 1197.137085,717.211792 
	C1188.022217,733.372009 1186.932007,750.721558 1190.685303,768.510193 
	C1193.344849,781.115234 1199.737427,791.564026 1209.728394,799.869141 
	C1225.932739,813.339233 1262.108765,817.713928 1280.764771,791.216309 
	C1280.764771,798.011169 1281.338745,804.657776 1280.648315,811.170410 
	C1279.086670,825.902344 1270.554443,834.832581 1256.414062,835.752502 
	C1248.210693,836.286133 1239.635010,835.960632 1231.673706,834.104858 
	C1221.973389,831.843811 1212.742310,827.568909 1203.132568,824.101624 
	C1200.622559,830.448120 1197.892822,837.350342 1195.148193,844.290405 
	C1195.929199,844.861633 1196.428955,845.293945 1196.988037,845.626526 
	C1218.791870,858.595093 1242.338501,862.148682 1267.139160,858.275940 
	C1285.590820,855.394592 1299.875854,846.670715 1307.260498,827.769287 
M1091.523560,724.012207 
	C1097.858276,717.688477 1105.710327,715.663696 1114.361572,716.089111 
	C1124.960205,716.610291 1131.279175,722.192993 1132.991821,732.723755 
	C1133.603149,736.483215 1133.898071,740.333618 1133.913086,744.144165 
	C1133.997803,765.796753 1133.954102,787.449829 1133.954102,809.102783 
	C1133.954102,810.686523 1133.954102,812.270203 1133.954102,813.785645 
	C1144.386597,813.785645 1154.160767,813.785645 1164.175171,813.785645 
	C1164.220093,812.794312 1164.287476,812.000305 1164.287598,811.206238 
	C1164.290894,787.721130 1164.364258,764.235596 1164.226929,740.751282 
	C1164.195801,735.447693 1163.838257,730.075623 1162.916016,724.861572 
	C1160.600830,711.770386 1154.814209,700.858826 1141.777100,695.500061 
	C1125.233154,688.699890 1098.420410,690.375732 1084.746338,709.188599 
	C1084.524902,709.493347 1084.019897,709.591919 1083.087280,710.079041 
	C1083.087280,687.237854 1083.087280,664.869324 1083.087280,642.324219 
	C1072.876831,642.324219 1063.129150,642.324219 1053.126221,642.324219 
	C1053.126221,699.549316 1053.126221,756.574036 1053.126221,813.722534 
	C1063.168701,813.722534 1073.059326,813.722534 1083.166748,813.722534 
	C1083.166748,791.479980 1083.144165,769.515076 1083.178223,747.550293 
	C1083.191406,739.011108 1084.951172,731.024170 1091.523560,724.012207 
M746.720093,768.500183 
	C746.720093,735.102966 746.720093,701.705688 746.720093,667.824463 
	C765.738159,667.824463 784.122986,667.824463 802.484375,667.824463 
	C802.484375,659.077637 802.484375,650.821472 802.484375,642.351440 
	C754.669250,642.351440 707.122314,642.351440 659.374512,642.351440 
	C659.374512,650.971680 659.374512,659.354980 659.374512,668.164368 
	C678.052246,668.164368 696.458191,668.164368 715.281494,668.164368 
	C715.281494,716.971802 715.281494,765.352966 715.281494,813.697754 
	C725.943237,813.697754 736.176086,813.697754 746.720093,813.697754 
	C746.720093,798.760315 746.720093,784.130249 746.720093,768.500183 
M1461.869385,814.694092 
	C1480.108521,818.173218 1495.771362,814.679138 1507.120117,796.779541 
	C1507.120117,803.339539 1507.120117,808.541931 1507.120117,813.731445 
	C1517.022461,813.731445 1526.424561,813.731445 1535.900757,813.731445 
	C1535.900757,787.176636 1536.457642,760.878296 1535.723511,734.616028 
	C1535.142212,713.816284 1525.404175,700.074097 1508.633789,695.127686 
	C1482.755737,687.495056 1458.860718,694.040466 1435.629761,706.315552 
	C1438.651978,713.657043 1441.452393,720.459412 1444.282837,727.334595 
	C1447.940918,725.488342 1450.974731,723.751709 1454.166260,722.382629 
	C1466.530396,717.078857 1479.171875,713.275024 1492.877075,715.939819 
	C1499.532227,717.233765 1504.250854,720.997192 1505.726318,727.614258 
	C1506.863403,732.713806 1506.920532,738.054077 1507.538940,744.076111 
	C1498.482422,744.076111 1490.331177,743.732361 1482.220337,744.157715 
	C1470.429077,744.776062 1458.659912,745.890564 1447.666870,750.842712 
	C1439.437134,754.549988 1433.905396,760.453369 1431.878174,769.465881 
	C1427.176514,790.367249 1438.979736,808.588013 1461.869385,814.694092 
M874.078308,813.241699 
	C883.592590,813.241699 893.106812,813.241699 903.015503,813.241699 
	C903.015503,812.146362 903.015503,810.690918 903.015503,809.235474 
	C903.015076,787.247681 903.074768,765.259583 902.968384,743.272339 
	C902.944275,738.293152 902.680908,733.266418 901.946716,728.348328 
	C899.424072,711.449951 890.944885,699.117371 873.788025,694.594604 
	C848.494629,687.926941 825.239197,694.301880 802.564819,706.315857 
	C805.560059,713.622437 808.356262,720.443481 811.185791,727.345947 
	C814.790039,725.519897 817.821289,723.773010 821.014526,722.403809 
	C833.382263,717.100586 846.025024,713.288147 859.739197,715.928772 
	C866.626038,717.254761 871.313782,721.214722 872.774048,728.041748 
	C873.835327,733.003296 873.894409,738.179260 874.440063,743.659363 
	C871.484375,743.659363 869.352722,743.632141 867.221924,743.663696 
	C851.076355,743.902893 834.871582,743.831848 819.299866,748.991394 
	C802.195740,754.658569 794.545471,768.610596 798.627319,786.223145 
	C802.080078,801.121399 814.636414,812.409241 830.865784,815.020813 
	C847.943359,817.768860 862.672424,814.365051 872.555603,798.674133 
	C872.826660,798.243774 873.220215,797.890564 874.022949,796.962036 
	C874.022949,802.623291 874.022949,807.451172 874.078308,813.241699 
M1028.023071,702.433228 
	C1009.896851,691.771790 990.496948,689.225525 970.306458,694.385437 
	C944.764709,700.913025 929.352966,720.966187 927.589111,750.382141 
	C925.553101,784.337097 943.276428,812.145081 980.631592,815.534790 
	C998.520447,817.158020 1015.427673,813.826233 1030.375854,803.265991 
	C1031.628174,802.381226 1033.000366,799.870605 1032.593506,798.730347 
	C1030.317383,792.354065 1027.511108,786.167053 1024.853149,779.837158 
	C1000.562866,797.863525 977.257141,793.545166 967.333740,781.899109 
	C956.062195,768.670898 955.985779,739.692810 967.066589,726.214844 
	C976.655334,714.551697 1000.303589,709.777649 1024.902832,727.993042 
	C1027.059326,722.708130 1028.803467,717.297241 1031.422729,712.349609 
	C1033.818726,707.823792 1033.109741,704.967163 1028.023071,702.433228 
M1342.764404,796.497437 
	C1342.764404,802.266602 1342.764404,808.035767 1342.764404,813.640991 
	C1353.221191,813.640991 1363.123291,813.640991 1373.090454,813.640991 
	C1373.090454,792.113892 1373.003418,770.948914 1373.118042,749.785095 
	C1373.209717,732.841797 1381.347778,722.972412 1397.952393,719.945862 
	C1405.458374,718.577698 1413.112671,718.023254 1421.113159,717.049316 
	C1420.463013,708.666199 1419.823608,700.422302 1419.076660,690.791809 
	C1409.847412,692.604858 1400.937500,693.719971 1392.425781,696.200867 
	C1383.406494,698.829712 1376.946167,705.303040 1371.667114,713.365234 
	C1371.667114,707.308777 1371.667114,701.252380 1371.667114,695.229126 
	C1361.780029,695.229126 1352.386108,695.229126 1342.764404,695.229126 
	C1342.764404,728.858826 1342.764404,762.178589 1342.764404,796.497437 
M442.891113,679.979736 
	C444.674286,693.230774 454.399109,702.254944 467.956604,702.399231 
	C490.771271,702.642212 513.593079,702.676880 536.406738,702.390198 
	C551.216003,702.204224 561.823792,690.970825 561.307312,676.870972 
	C560.790527,662.760376 549.453247,652.422058 534.702271,653.149719 
	C531.219849,653.321472 529.902710,652.109009 528.308228,649.403137 
	C520.835205,636.721008 509.774475,630.139709 494.837982,631.019470 
	C481.425323,631.809509 471.736664,638.444092 465.401459,650.255920 
	C464.657379,651.643311 463.073608,652.985107 461.584808,653.504639 
	C448.931549,657.919861 442.890778,666.068848 442.891113,679.979736 
M384.125977,746.650818 
	C398.782776,735.429749 403.471832,717.579529 395.902954,701.818115 
	C388.577301,686.563171 371.222717,678.216675 355.054596,682.518555 
	C340.329865,686.436401 330.992737,696.124023 328.346008,711.028809 
	C325.740112,725.703918 330.779694,738.181213 343.222076,746.672852 
	C356.333405,755.620911 370.011353,755.388245 384.125977,746.650818 
M573.499756,773.606873 
	C579.661438,773.593262 585.840637,773.870178 591.980591,773.498108 
	C601.178040,772.940674 607.957764,765.558044 607.855408,756.767151 
	C607.755859,748.211731 600.896301,741.342041 592.001160,740.446228 
	C590.235718,740.268433 588.018799,739.123047 587.011536,737.709961 
	C576.867981,723.480103 557.786255,723.649780 547.962524,738.140747 
	C547.116272,739.388977 545.810730,740.598267 544.443909,741.176514 
	C535.990356,744.752563 531.634949,751.897278 533.190125,760.015564 
	C534.739075,768.101318 541.449829,773.439087 550.517334,773.581482 
	C557.843201,773.696533 565.172241,773.606018 573.499756,773.606873 
z"/>
<path fill="#FDFDFD" opacity="1.000000" stroke="none" 
	d="
M1597.423828,811.556885 
	C1596.722656,812.678528 1596.031860,813.904175 1595.324219,813.913940 
	C1586.032349,814.042542 1576.738159,813.999573 1567.222412,813.999573 
	C1567.222412,774.254395 1567.222412,734.846863 1567.222412,695.184326 
	C1576.998901,695.184326 1586.706665,695.184326 1596.815186,695.184326 
	C1596.815186,700.171631 1596.815186,704.908447 1596.815186,711.015991 
	C1606.335449,696.705383 1619.202271,691.705811 1634.555908,691.969421 
	C1650.184448,692.237793 1662.219360,698.343323 1668.808960,713.527832 
	C1669.381958,713.104675 1669.797607,712.932007 1670.011230,712.620605 
	C1681.921021,695.260742 1701.210205,688.090332 1721.546265,693.438477 
	C1736.334229,697.327698 1743.798950,707.769592 1746.835327,721.967407 
	C1747.840698,726.667419 1748.566528,731.526794 1748.598267,736.318787 
	C1748.768433,761.964539 1748.678711,787.612000 1748.678711,813.631226 
	C1738.742676,813.631226 1728.836060,813.631226 1718.191162,813.631226 
	C1718.191162,812.104797 1718.191284,810.359863 1718.191162,808.614929 
	C1718.190552,786.785583 1718.328857,764.954651 1718.090820,743.127930 
	C1718.031738,737.708862 1717.230347,732.183289 1715.906738,726.924011 
	C1714.511230,721.379578 1710.378662,718.128174 1704.697998,716.732239 
	C1687.506836,712.507629 1673.574341,724.421997 1673.107056,744.360840 
	C1672.747803,759.683228 1673.000732,775.020081 1672.987061,790.350464 
	C1672.980225,798.006775 1672.985962,805.663025 1672.985962,813.661316 
	C1662.963379,813.661316 1653.056030,813.661316 1642.523804,813.661316 
	C1642.523804,812.032654 1642.523804,810.265625 1642.523804,808.498535 
	C1642.523071,787.002441 1642.611816,765.505676 1642.454468,744.010742 
	C1642.418213,739.050781 1642.010132,733.992981 1640.943604,729.163391 
	C1639.068970,720.673584 1633.718018,716.598755 1624.985474,716.077148 
	C1610.084961,715.187073 1598.954468,724.783020 1598.078613,740.635986 
	C1597.224731,756.088806 1597.566406,771.608948 1597.438477,787.100037 
	C1597.372437,795.098145 1597.426514,803.097168 1597.423828,811.556885 
z"/>
<path fill="#FDFDFD" opacity="1.000000" stroke="none" 
	d="
M1307.141968,828.141602 
	C1299.875854,846.670715 1285.590820,855.394592 1267.139160,858.275940 
	C1242.338501,862.148682 1218.791870,858.595093 1196.988037,845.626526 
	C1196.428955,845.293945 1195.929199,844.861633 1195.148193,844.290405 
	C1197.892822,837.350342 1200.622559,830.448120 1203.132568,824.101624 
	C1212.742310,827.568909 1221.973389,831.843811 1231.673706,834.104858 
	C1239.635010,835.960632 1248.210693,836.286133 1256.414062,835.752502 
	C1270.554443,834.832581 1279.086670,825.902344 1280.648315,811.170410 
	C1281.338745,804.657776 1280.764771,798.011169 1280.764771,791.216309 
	C1262.108765,817.713928 1225.932739,813.339233 1209.728394,799.869141 
	C1199.737427,791.564026 1193.344849,781.115234 1190.685303,768.510193 
	C1186.932007,750.721558 1188.022217,733.372009 1197.137085,717.211792 
	C1210.088013,694.250183 1240.438965,684.795654 1263.919312,696.886902 
	C1270.297974,700.171692 1275.503906,705.733826 1280.915527,709.989197 
	C1280.915527,705.953735 1280.915527,700.725769 1280.915527,695.213379 
	C1291.013672,695.213379 1300.760254,695.213379 1310.888550,695.213379 
	C1310.972656,695.813782 1311.169922,696.564148 1311.169556,697.314331 
	C1311.152954,733.629089 1311.321411,769.946045 1310.914917,806.256592 
	C1310.834473,813.440247 1308.536011,820.599060 1307.141968,828.141602 
M1219.185913,754.209412 
	C1219.470825,756.520508 1219.670776,758.845825 1220.054199,761.140503 
	C1222.558594,776.129395 1233.538330,786.203308 1248.078735,786.903931 
	C1264.188110,787.680176 1275.503662,779.632751 1279.479126,764.289246 
	C1281.861206,755.095215 1281.727417,745.825439 1279.043335,736.690613 
	C1275.019775,722.997009 1264.675049,715.567261 1249.980591,715.639954 
	C1235.469604,715.711731 1224.769287,723.375977 1221.171265,737.043884 
	C1219.793579,742.277832 1219.789429,747.873413 1219.185913,754.209412 
z"/>
<path fill="#FEFEFE" opacity="1.000000" stroke="none" 
	d="
M1091.272705,724.270081 
	C1084.951172,731.024170 1083.191406,739.011108 1083.178223,747.550293 
	C1083.144165,769.515076 1083.166748,791.479980 1083.166748,813.722534 
	C1073.059326,813.722534 1063.168701,813.722534 1053.126221,813.722534 
	C1053.126221,756.574036 1053.126221,699.549316 1053.126221,642.324219 
	C1063.129150,642.324219 1072.876831,642.324219 1083.087280,642.324219 
	C1083.087280,664.869324 1083.087280,687.237854 1083.087280,710.079041 
	C1084.019897,709.591919 1084.524902,709.493347 1084.746338,709.188599 
	C1098.420410,690.375732 1125.233154,688.699890 1141.777100,695.500061 
	C1154.814209,700.858826 1160.600830,711.770386 1162.916016,724.861572 
	C1163.838257,730.075623 1164.195801,735.447693 1164.226929,740.751282 
	C1164.364258,764.235596 1164.290894,787.721130 1164.287598,811.206238 
	C1164.287476,812.000305 1164.220093,812.794312 1164.175171,813.785645 
	C1154.160767,813.785645 1144.386597,813.785645 1133.954102,813.785645 
	C1133.954102,812.270203 1133.954102,810.686523 1133.954102,809.102783 
	C1133.954102,787.449829 1133.997803,765.796753 1133.913086,744.144165 
	C1133.898071,740.333618 1133.603149,736.483215 1132.991821,732.723755 
	C1131.279175,722.192993 1124.960205,716.610291 1114.361572,716.089111 
	C1105.710327,715.663696 1097.858276,717.688477 1091.272705,724.270081 
z"/>
<path fill="#FBFBFB" opacity="1.000000" stroke="none" 
	d="
M746.720093,769.000244 
	C746.720093,784.130249 746.720093,798.760315 746.720093,813.697754 
	C736.176086,813.697754 725.943237,813.697754 715.281494,813.697754 
	C715.281494,765.352966 715.281494,716.971802 715.281494,668.164368 
	C696.458191,668.164368 678.052246,668.164368 659.374512,668.164368 
	C659.374512,659.354980 659.374512,650.971680 659.374512,642.351440 
	C707.122314,642.351440 754.669250,642.351440 802.484375,642.351440 
	C802.484375,650.821472 802.484375,659.077637 802.484375,667.824463 
	C784.122986,667.824463 765.738159,667.824463 746.720093,667.824463 
	C746.720093,701.705688 746.720093,735.102966 746.720093,769.000244 
z"/>
<path fill="#FDFDFD" opacity="1.000000" stroke="none" 
	d="
M1461.479248,814.549561 
	C1438.979736,808.588013 1427.176514,790.367249 1431.878174,769.465881 
	C1433.905396,760.453369 1439.437134,754.549988 1447.666870,750.842712 
	C1458.659912,745.890564 1470.429077,744.776062 1482.220337,744.157715 
	C1490.331177,743.732361 1498.482422,744.076111 1507.538940,744.076111 
	C1506.920532,738.054077 1506.863403,732.713806 1505.726318,727.614258 
	C1504.250854,720.997192 1499.532227,717.233765 1492.877075,715.939819 
	C1479.171875,713.275024 1466.530396,717.078857 1454.166260,722.382629 
	C1450.974731,723.751709 1447.940918,725.488342 1444.282837,727.334595 
	C1441.452393,720.459412 1438.651978,713.657043 1435.629761,706.315552 
	C1458.860718,694.040466 1482.755737,687.495056 1508.633789,695.127686 
	C1525.404175,700.074097 1535.142212,713.816284 1535.723511,734.616028 
	C1536.457642,760.878296 1535.900757,787.176636 1535.900757,813.731445 
	C1526.424561,813.731445 1517.022461,813.731445 1507.120117,813.731445 
	C1507.120117,808.541931 1507.120117,803.339539 1507.120117,796.779541 
	C1495.771362,814.679138 1480.108521,818.173218 1461.479248,814.549561 
M1462.244385,769.159607 
	C1457.366943,781.836609 1465.032715,793.486084 1478.572388,793.972717 
	C1496.911011,794.631836 1509.272339,779.712708 1506.491211,759.197937 
	C1496.336548,759.922424 1486.081787,760.366577 1475.904297,761.501526 
	C1470.823364,762.068115 1465.769897,763.687927 1462.244385,769.159607 
z"/>
<path fill="#FDFDFD" opacity="1.000000" stroke="none" 
	d="
M874.050659,812.760376 
	C874.022949,807.451172 874.022949,802.623291 874.022949,796.962036 
	C873.220215,797.890564 872.826660,798.243774 872.555603,798.674133 
	C862.672424,814.365051 847.943359,817.768860 830.865784,815.020813 
	C814.636414,812.409241 802.080078,801.121399 798.627319,786.223145 
	C794.545471,768.610596 802.195740,754.658569 819.299866,748.991394 
	C834.871582,743.831848 851.076355,743.902893 867.221924,743.663696 
	C869.352722,743.632141 871.484375,743.659363 874.440063,743.659363 
	C873.894409,738.179260 873.835327,733.003296 872.774048,728.041748 
	C871.313782,721.214722 866.626038,717.254761 859.739197,715.928772 
	C846.025024,713.288147 833.382263,717.100586 821.014526,722.403809 
	C817.821289,723.773010 814.790039,725.519897 811.185791,727.345947 
	C808.356262,720.443481 805.560059,713.622437 802.564819,706.315857 
	C825.239197,694.301880 848.494629,687.926941 873.788025,694.594604 
	C890.944885,699.117371 899.424072,711.449951 901.946716,728.348328 
	C902.680908,733.266418 902.944275,738.293152 902.968384,743.272339 
	C903.074768,765.259583 903.015076,787.247681 903.015503,809.235474 
	C903.015503,810.690918 903.015503,812.146362 903.015503,813.241699 
	C893.106812,813.241699 883.592590,813.241699 874.050659,812.760376 
M854.226318,793.010681 
	C868.681213,788.227356 876.653381,774.412476 873.156494,758.955139 
	C862.216248,759.967468 851.073120,760.475159 840.116577,762.181335 
	C831.652039,763.499390 828.028442,768.178406 827.637756,775.414795 
	C827.209839,783.340942 831.624084,790.720581 839.187195,792.641479 
	C843.679565,793.782471 848.649536,793.043152 854.226318,793.010681 
z"/>
<path fill="#FDFDFD" opacity="1.000000" stroke="none" 
	d="
M1028.308105,702.650452 
	C1033.109741,704.967163 1033.818726,707.823792 1031.422729,712.349609 
	C1028.803467,717.297241 1027.059326,722.708130 1024.902832,727.993042 
	C1000.303589,709.777649 976.655334,714.551697 967.066589,726.214844 
	C955.985779,739.692810 956.062195,768.670898 967.333740,781.899109 
	C977.257141,793.545166 1000.562866,797.863525 1024.853149,779.837158 
	C1027.511108,786.167053 1030.317383,792.354065 1032.593506,798.730347 
	C1033.000366,799.870605 1031.628174,802.381226 1030.375854,803.265991 
	C1015.427673,813.826233 998.520447,817.158020 980.631592,815.534790 
	C943.276428,812.145081 925.553101,784.337097 927.589111,750.382141 
	C929.352966,720.966187 944.764709,700.913025 970.306458,694.385437 
	C990.496948,689.225525 1009.896851,691.771790 1028.308105,702.650452 
z"/>
<path fill="#FDFDFD" opacity="1.000000" stroke="none" 
	d="
M1342.764404,795.997925 
	C1342.764404,762.178589 1342.764404,728.858826 1342.764404,695.229126 
	C1352.386108,695.229126 1361.780029,695.229126 1371.667114,695.229126 
	C1371.667114,701.252380 1371.667114,707.308777 1371.667114,713.365234 
	C1376.946167,705.303040 1383.406494,698.829712 1392.425781,696.200867 
	C1400.937500,693.719971 1409.847412,692.604858 1419.076660,690.791809 
	C1419.823608,700.422302 1420.463013,708.666199 1421.113159,717.049316 
	C1413.112671,718.023254 1405.458374,718.577698 1397.952393,719.945862 
	C1381.347778,722.972412 1373.209717,732.841797 1373.118042,749.785095 
	C1373.003418,770.948914 1373.090454,792.113892 1373.090454,813.640991 
	C1363.123291,813.640991 1353.221191,813.640991 1342.764404,813.640991 
	C1342.764404,808.035767 1342.764404,802.266602 1342.764404,795.997925 
z"/>
<path fill="#E7B2A3" opacity="1.000000" stroke="none" 
	d="
M411.850037,767.623108 
	C416.688599,761.792419 421.464417,755.908264 426.379883,750.143127 
	C434.555450,740.554382 442.830261,731.050232 451.043640,721.493530 
	C454.471802,717.504761 461.499573,716.680603 465.999023,719.914734 
	C467.473907,720.974915 468.753815,722.322998 470.050140,723.612610 
	C512.210876,765.550354 554.383057,807.476685 596.460205,849.498108 
	C598.739197,851.774109 600.981323,854.619568 601.906372,857.612366 
	C604.114990,864.758301 598.741028,871.002075 590.839661,871.009033 
	C556.858276,871.039062 522.876953,871.017334 488.895599,871.010010 
	C463.909363,871.004639 438.923096,870.992554 413.468445,870.513062 
	C413.003845,868.431213 413.007690,866.819824 413.473572,865.136780 
	C417.432190,865.058350 420.929474,865.093445 424.425262,865.036987 
	C434.976471,864.866577 443.529755,860.648987 449.330170,851.793945 
	C452.034943,847.664795 454.433777,843.149231 455.974640,838.479919 
	C459.926819,826.503662 463.243134,814.319214 466.960571,802.263245 
	C470.673340,790.222473 475.658661,778.797607 485.352173,770.251404 
	C489.127625,766.922852 493.557892,764.336975 497.040466,761.872437 
	C489.286072,754.114441 481.437164,746.261841 473.368225,738.189148 
	C463.666016,742.747192 455.286407,749.821716 449.022003,759.008179 
	C441.726685,769.706421 435.257080,780.963928 428.217743,791.841980 
	C423.719177,798.793762 418.837524,805.497620 413.983124,811.955566 
	C412.780884,810.361816 411.723145,809.125122 410.800018,807.567627 
	C416.659058,798.485596 422.600403,789.857117 428.062805,780.935425 
	C439.467926,762.307251 450.582489,743.491211 471.528320,732.521057 
	C469.332642,730.549927 467.541138,729.055115 465.878845,727.428223 
	C460.804932,722.462524 457.673401,722.400330 452.966461,727.658936 
	C449.484558,731.548889 446.377136,735.771362 442.966400,739.728027 
	C433.144684,751.122070 423.253815,762.456482 413.293396,773.366394 
	C412.747772,771.153381 412.298920,769.388245 411.850037,767.623108 
M509.424103,771.046814 
	C506.559052,766.515320 502.747833,766.615845 499.102509,769.581848 
	C494.124878,773.631714 488.433411,777.433655 485.032135,782.638489 
	C480.379150,789.758728 477.024109,797.893005 474.114502,805.954163 
	C466.795197,826.232788 465.344513,849.050293 447.164764,865.008423 
	C495.313141,865.008423 542.592224,865.008423 589.871277,865.007568 
	C590.204163,865.007568 590.540039,865.021545 590.869507,864.984314 
	C594.672791,864.554321 596.225403,862.199463 595.272705,858.748230 
	C594.742981,856.829041 593.273071,854.995056 591.815796,853.532104 
	C564.557251,826.166748 537.236877,798.863098 509.424103,771.046814 
z"/>
<path fill="#E4A499" opacity="1.000000" stroke="none" 
	d="
M413.011536,865.208374 
	C413.007690,866.819824 413.003845,868.431213 413.004730,870.445312 
	C401.015350,870.904175 389.021301,871.002563 377.027161,871.008728 
	C339.365692,871.028076 301.704132,870.980713 264.042816,871.056824 
	C259.911285,871.065186 256.140167,870.471863 254.489014,866.318909 
	C252.774902,862.007568 253.507263,858.077759 257.113922,854.524170 
	C272.545227,839.320190 287.769287,823.906189 303.129791,808.629944 
	C308.448822,803.340149 312.890961,803.384827 318.257172,808.675903 
	C325.495117,815.812500 332.639404,823.043884 339.838959,830.219543 
	C344.187653,834.553772 353.851379,834.170837 357.892883,829.508179 
	C375.680115,808.987305 393.459839,788.460022 411.546204,767.779114 
	C412.298920,769.388245 412.747772,771.153381 413.150757,773.645569 
	C396.672882,793.377441 380.240875,812.382324 363.343201,831.925781 
	C365.006439,831.925781 365.670502,831.976929 366.323517,831.913879 
	C367.313019,831.818298 368.294830,831.643188 369.279938,831.502136 
	C386.184753,829.080872 399.594910,820.534912 410.665405,807.888428 
	C411.723145,809.125122 412.780884,810.361816 413.892456,812.269531 
	C396.855743,833.960693 373.810211,840.351440 346.287506,838.950745 
	C352.196106,844.703491 357.051361,849.021729 361.392059,853.806763 
	C364.090668,856.781494 366.010162,860.463074 369.210785,865.208374 
	C382.428986,865.208374 397.720245,865.208374 413.011536,865.208374 
M358.529877,858.158630 
	C357.937622,857.574402 357.341858,856.993652 356.753632,856.405518 
	C342.631012,842.285767 328.487244,828.187073 314.408386,814.023865 
	C312.010468,811.611572 310.028931,810.289246 306.989380,813.364014 
	C291.898163,828.630188 276.645386,843.736633 261.552643,859.001282 
	C260.557465,860.007812 259.706360,862.111877 260.103333,863.244751 
	C260.434845,864.190979 262.693024,864.954651 264.100555,864.958923 
	C294.888855,865.052917 325.677582,865.050781 356.465912,864.961792 
	C357.931335,864.957581 359.393921,863.985474 360.857849,863.464111 
	C360.250305,861.877991 359.642792,860.291931 358.529877,858.158630 
z"/>
<path fill="#E7B2A3" opacity="1.000000" stroke="none" 
	d="
M442.864899,679.578430 
	C442.890778,666.068848 448.931549,657.919861 461.584808,653.504639 
	C463.073608,652.985107 464.657379,651.643311 465.401459,650.255920 
	C471.736664,638.444092 481.425323,631.809509 494.837982,631.019470 
	C509.774475,630.139709 520.835205,636.721008 528.308228,649.403137 
	C529.902710,652.109009 531.219849,653.321472 534.702271,653.149719 
	C549.453247,652.422058 560.790527,662.760376 561.307312,676.870972 
	C561.823792,690.970825 551.216003,702.204224 536.406738,702.390198 
	C513.593079,702.676880 490.771271,702.642212 467.956604,702.399231 
	C454.399109,702.254944 444.674286,693.230774 442.864899,679.578430 
M491.382141,637.549805 
	C481.609039,639.694275 474.566803,645.403625 470.358551,654.358643 
	C469.031860,657.181824 467.743378,658.623169 464.406219,659.074524 
	C457.456024,660.014587 452.583588,664.232361 450.068909,670.790771 
	C445.308197,683.207214 454.569885,695.625244 468.809723,695.713684 
	C490.969421,695.851318 513.130676,695.748169 535.291260,695.722717 
	C536.616211,695.721191 537.955872,695.593628 539.263489,695.374268 
	C550.156555,693.547180 557.105896,683.551575 554.782471,673.099548 
	C552.413086,662.440796 541.542236,656.265442 530.857849,659.507263 
	C529.504089,659.918030 528.147766,660.319885 526.848877,660.709045 
	C518.579346,642.028137 509.061493,635.673157 491.382141,637.549805 
z"/>
<path fill="#E4A499" opacity="1.000000" stroke="none" 
	d="
M383.827087,746.852783 
	C370.011353,755.388245 356.333405,755.620911 343.222076,746.672852 
	C330.779694,738.181213 325.740112,725.703918 328.346008,711.028809 
	C330.992737,696.124023 340.329865,686.436401 355.054596,682.518555 
	C371.222717,678.216675 388.577301,686.563171 395.902954,701.818115 
	C403.471832,717.579529 398.782776,735.429749 383.827087,746.852783 
M336.548492,705.316223 
	C336.243256,706.087585 335.906372,706.848022 335.637573,707.631897 
	C331.390320,720.016907 335.438965,733.073425 345.964600,740.964111 
	C356.238770,748.666260 369.431396,748.983398 379.997528,741.782227 
	C390.748901,734.454834 395.563019,721.236389 391.969086,708.911011 
	C388.733337,697.814087 378.732666,689.196716 367.675690,687.977966 
	C354.330383,686.506958 343.703400,692.255859 336.548492,705.316223 
z"/>
<path fill="#E7B2A3" opacity="1.000000" stroke="none" 
	d="
M572.999817,773.606812 
	C565.172241,773.606018 557.843201,773.696533 550.517334,773.581482 
	C541.449829,773.439087 534.739075,768.101318 533.190125,760.015564 
	C531.634949,751.897278 535.990356,744.752563 544.443909,741.176514 
	C545.810730,740.598267 547.116272,739.388977 547.962524,738.140747 
	C557.786255,723.649780 576.867981,723.480103 587.011536,737.709961 
	C588.018799,739.123047 590.235718,740.268433 592.001160,740.446228 
	C600.896301,741.342041 607.755859,748.211731 607.855408,756.767151 
	C607.957764,765.558044 601.178040,772.940674 591.980591,773.498108 
	C585.840637,773.870178 579.661438,773.593262 572.999817,773.606812 
M539.927124,751.860840 
	C536.845459,760.296875 540.487427,766.987854 548.815125,767.156738 
	C563.108093,767.446777 577.414917,767.390808 591.709351,767.126343 
	C598.132141,767.007568 602.284363,761.678650 601.337158,755.768005 
	C600.374939,749.763672 594.343628,745.824463 588.317871,747.300720 
	C586.946411,747.636658 585.608948,748.112000 584.198242,748.540710 
	C583.436890,746.650574 582.852234,745.099792 582.193909,743.580872 
	C577.968262,733.831360 565.037231,729.563965 557.338257,736.684387 
	C551.833618,741.775269 546.629761,747.075989 539.927124,751.860840 
z"/>
<path fill="#020202" opacity="1.000000" stroke="none" 
	d="
M1219.172607,753.756836 
	C1219.789429,747.873413 1219.793579,742.277832 1221.171265,737.043884 
	C1224.769287,723.375977 1235.469604,715.711731 1249.980591,715.639954 
	C1264.675049,715.567261 1275.019775,722.997009 1279.043335,736.690613 
	C1281.727417,745.825439 1281.861206,755.095215 1279.479126,764.289246 
	C1275.503662,779.632751 1264.188110,787.680176 1248.078735,786.903931 
	C1233.538330,786.203308 1222.558594,776.129395 1220.054199,761.140503 
	C1219.670776,758.845825 1219.470825,756.520508 1219.172607,753.756836 
z"/>
<path fill="#020202" opacity="1.000000" stroke="none" 
	d="
M1462.472900,768.840454 
	C1465.769897,763.687927 1470.823364,762.068115 1475.904297,761.501526 
	C1486.081787,760.366577 1496.336548,759.922424 1506.491211,759.197937 
	C1509.272339,779.712708 1496.911011,794.631836 1478.572388,793.972717 
	C1465.032715,793.486084 1457.366943,781.836609 1462.472900,768.840454 
z"/>
<path fill="#020202" opacity="1.000000" stroke="none" 
	d="
M853.815552,793.079956 
	C848.649536,793.043152 843.679565,793.782471 839.187195,792.641479 
	C831.624084,790.720581 827.209839,783.340942 827.637756,775.414795 
	C828.028442,768.178406 831.652039,763.499390 840.116577,762.181335 
	C851.073120,760.475159 862.216248,759.967468 873.156494,758.955139 
	C876.653381,774.412476 868.681213,788.227356 853.815552,793.079956 
z"/>
<path fill="#000000" opacity="1.000000" stroke="none" 
	d="
M509.676758,771.296631 
	C537.236877,798.863098 564.557251,826.166748 591.815796,853.532104 
	C593.273071,854.995056 594.742981,856.829041 595.272705,858.748230 
	C596.225403,862.199463 594.672791,864.554321 590.869507,864.984314 
	C590.540039,865.021545 590.204163,865.007568 589.871277,865.007568 
	C542.592224,865.008423 495.313141,865.008423 447.164764,865.008423 
	C465.344513,849.050293 466.795197,826.232788 474.114502,805.954163 
	C477.024109,797.893005 480.379150,789.758728 485.032135,782.638489 
	C488.433411,777.433655 494.124878,773.631714 499.102509,769.581848 
	C502.747833,766.615845 506.559052,766.515320 509.676758,771.296631 
z"/>
<path fill="#020202" opacity="1.000000" stroke="none" 
	d="
M413.473572,865.136780 
	C397.720245,865.208374 382.428986,865.208374 369.210785,865.208374 
	C366.010162,860.463074 364.090668,856.781494 361.392059,853.806763 
	C357.051361,849.021729 352.196106,844.703491 346.287506,838.950745 
	C373.810211,840.351440 396.855743,833.960693 414.036957,812.626587 
	C418.837524,805.497620 423.719177,798.793762 428.217743,791.841980 
	C435.257080,780.963928 441.726685,769.706421 449.022003,759.008179 
	C455.286407,749.821716 463.666016,742.747192 473.368225,738.189148 
	C481.437164,746.261841 489.286072,754.114441 497.040466,761.872437 
	C493.557892,764.336975 489.127625,766.922852 485.352173,770.251404 
	C475.658661,778.797607 470.673340,790.222473 466.960571,802.263245 
	C463.243134,814.319214 459.926819,826.503662 455.974640,838.479919 
	C454.433777,843.149231 452.034943,847.664795 449.330170,851.793945 
	C443.529755,860.648987 434.976471,864.866577 424.425262,865.036987 
	C420.929474,865.093445 417.432190,865.058350 413.473572,865.136780 
M413.451843,850.923401 
	C409.706970,850.923401 405.962067,850.923401 402.197266,850.923401 
	C402.197266,853.204163 402.197266,854.928650 402.197266,856.652588 
	C408.608276,856.652588 414.760712,856.652588 421.080902,856.652588 
	C420.970093,854.554077 420.878815,852.825439 420.778351,850.923157 
	C418.359924,850.923157 416.393433,850.923157 413.451843,850.923401 
M426.544403,840.978638 
	C429.320709,840.978638 432.096985,840.978638 434.896912,840.978638 
	C434.896912,838.701599 434.896912,836.967834 434.896912,835.237671 
	C429.749878,835.237671 424.882202,835.237671 419.833191,835.237671 
	C419.953583,837.352722 420.052094,839.083740 420.159973,840.978699 
	C422.286469,840.978699 423.933533,840.978699 426.544403,840.978638 
M388.326294,848.285522 
	C389.101532,846.510803 389.876801,844.736084 390.871948,842.457947 
	C384.756226,842.457947 379.890381,842.457947 374.732117,842.457947 
	C374.829407,844.561035 374.909790,846.297729 375.002594,848.304016 
	C379.431000,848.304016 383.397186,848.304016 388.326294,848.285522 
z"/>
<path fill="#020202" opacity="1.000000" stroke="none" 
	d="
M410.800018,807.567627 
	C399.594910,820.534912 386.184753,829.080872 369.279938,831.502136 
	C368.294830,831.643188 367.313019,831.818298 366.323517,831.913879 
	C365.670502,831.976929 365.006439,831.925781 363.343201,831.925781 
	C380.240875,812.382324 396.672882,793.377441 413.247498,774.093445 
	C423.253815,762.456482 433.144684,751.122070 442.966400,739.728027 
	C446.377136,735.771362 449.484558,731.548889 452.966461,727.658936 
	C457.673401,722.400330 460.804932,722.462524 465.878845,727.428223 
	C467.541138,729.055115 469.332642,730.549927 471.528320,732.521057 
	C450.582489,743.491211 439.467926,762.307251 428.062805,780.935425 
	C422.600403,789.857117 416.659058,798.485596 410.800018,807.567627 
z"/>
<path fill="#020202" opacity="1.000000" stroke="none" 
	d="
M358.782593,858.432251 
	C359.642792,860.291931 360.250305,861.877991 360.857849,863.464111 
	C359.393921,863.985474 357.931335,864.957581 356.465912,864.961792 
	C325.677582,865.050781 294.888855,865.052917 264.100555,864.958923 
	C262.693024,864.954651 260.434845,864.190979 260.103333,863.244751 
	C259.706360,862.111877 260.557465,860.007812 261.552643,859.001282 
	C276.645386,843.736633 291.898163,828.630188 306.989380,813.364014 
	C310.028931,810.289246 312.010468,811.611572 314.408386,814.023865 
	C328.487244,828.187073 342.631012,842.285767 356.753632,856.405518 
	C357.341858,856.993652 357.937622,857.574402 358.782593,858.432251 
z"/>
<path fill="#020202" opacity="1.000000" stroke="none" 
	d="
M491.794006,637.431641 
	C509.061493,635.673157 518.579346,642.028137 526.848877,660.709045 
	C528.147766,660.319885 529.504089,659.918030 530.857849,659.507263 
	C541.542236,656.265442 552.413086,662.440796 554.782471,673.099548 
	C557.105896,683.551575 550.156555,693.547180 539.263489,695.374268 
	C537.955872,695.593628 536.616211,695.721191 535.291260,695.722717 
	C513.130676,695.748169 490.969421,695.851318 468.809723,695.713684 
	C454.569885,695.625244 445.308197,683.207214 450.068909,670.790771 
	C452.583588,664.232361 457.456024,660.014587 464.406219,659.074524 
	C467.743378,658.623169 469.031860,657.181824 470.358551,654.358643 
	C474.566803,645.403625 481.609039,639.694275 491.794006,637.431641 
z"/>
<path fill="#020202" opacity="1.000000" stroke="none" 
	d="
M336.719360,704.974121 
	C343.703400,692.255859 354.330383,686.506958 367.675690,687.977966 
	C378.732666,689.196716 388.733337,697.814087 391.969086,708.911011 
	C395.563019,721.236389 390.748901,734.454834 379.997528,741.782227 
	C369.431396,748.983398 356.238770,748.666260 345.964600,740.964111 
	C335.438965,733.073425 331.390320,720.016907 335.637573,707.631897 
	C335.906372,706.848022 336.243256,706.087585 336.719360,704.974121 
z"/>
<path fill="#020202" opacity="1.000000" stroke="none" 
	d="
M540.114746,751.508423 
	C546.629761,747.075989 551.833618,741.775269 557.338257,736.684387 
	C565.037231,729.563965 577.968262,733.831360 582.193909,743.580872 
	C582.852234,745.099792 583.436890,746.650574 584.198242,748.540710 
	C585.608948,748.112000 586.946411,747.636658 588.317871,747.300720 
	C594.343628,745.824463 600.374939,749.763672 601.337158,755.768005 
	C602.284363,761.678650 598.132141,767.007568 591.709351,767.126343 
	C577.414917,767.390808 563.108093,767.446777 548.815125,767.156738 
	C540.487427,766.987854 536.845459,760.296875 540.114746,751.508423 
z"/>
<path fill="#E7B2A3" opacity="1.000000" stroke="none" 
	d="
M413.939392,850.923279 
	C416.393433,850.923157 418.359924,850.923157 420.778351,850.923157 
	C420.878815,852.825439 420.970093,854.554077 421.080902,856.652588 
	C414.760712,856.652588 408.608276,856.652588 402.197266,856.652588 
	C402.197266,854.928650 402.197266,853.204163 402.197266,850.923401 
	C405.962067,850.923401 409.706970,850.923401 413.939392,850.923279 
z"/>
<path fill="#E7B2A3" opacity="1.000000" stroke="none" 
	d="
M426.062500,840.978638 
	C423.933533,840.978699 422.286469,840.978699 420.159973,840.978699 
	C420.052094,839.083740 419.953583,837.352722 419.833191,835.237671 
	C424.882202,835.237671 429.749878,835.237671 434.896912,835.237671 
	C434.896912,836.967834 434.896912,838.701599 434.896912,840.978638 
	C432.096985,840.978638 429.320709,840.978638 426.062500,840.978638 
z"/>
<path fill="#E4A499" opacity="1.000000" stroke="none" 
	d="
M387.844849,848.294800 
	C383.397186,848.304016 379.431000,848.304016 375.002594,848.304016 
	C374.909790,846.297729 374.829407,844.561035 374.732117,842.457947 
	C379.890381,842.457947 384.756226,842.457947 390.871948,842.457947 
	C389.876801,844.736084 389.101532,846.510803 387.844849,848.294800 
z"/>
</svg>